<svg version="1.1" id="Layer_1" xmlns="http://www.w3.org/2000/svg" xmlns:xlink="http://www.w3.org/1999/xlink" x="0px" y="0px"
	 width="100%" viewBox="0 0 1024 1024" enable-background="new 0 0 1024 1024" xml:space="preserve">
<path fill="#000000" opacity="1.000000" stroke="none" 
	d="
M570.000000,1025.000000 
	C380.000000,1025.000000 190.500000,1025.000000 1.000000,1025.000000 
	C1.000000,683.666687 1.000000,342.333344 1.000000,1.000000 
	C342.333344,1.000000 683.666687,1.000000 1025.000000,1.000000 
	C1025.000000,342.333344 1025.000000,683.666687 1025.000000,1025.000000 
	C873.500000,1025.000000 722.000000,1025.000000 570.000000,1025.000000 
M775.017029,730.982910 
	C775.017029,730.982910 775.088135,730.968506 774.956482,730.431458 
	C774.646790,730.257874 774.337097,730.084290 774.013123,729.982544 
	C774.013123,729.982544 774.082214,729.958374 774.021057,729.225586 
	C772.023499,726.789307 770.025940,724.353027 768.011780,721.997498 
	C768.011780,721.997498 768.093079,722.011230 768.000366,721.369324 
	C767.692749,720.894409 767.385071,720.419556 767.000000,720.000000 
	C767.000000,720.000000 767.081787,719.951111 766.951355,719.422546 
	C766.645447,719.252380 766.339539,719.082214 766.012939,718.984131 
	C766.012939,718.984131 766.082458,718.956116 766.021729,718.280945 
	C765.039368,717.167969 764.057068,716.054932 763.002441,714.997559 
	C763.002441,714.997559 763.068542,714.934875 763.021545,714.263184 
	C762.040833,713.157898 761.060120,712.052612 760.000000,711.000000 
	C760.000000,711.000000 760.081848,710.951172 759.952454,710.423462 
	C759.647400,710.253479 759.342346,710.083557 759.015442,709.984558 
	C759.015442,709.984558 759.086304,709.962524 758.954224,709.427551 
	C758.645020,709.255249 758.335815,709.082947 758.012329,708.982544 
	C758.012329,708.982544 758.080994,708.957092 758.020630,708.227783 
	C756.022339,705.790039 754.024109,703.352295 752.012756,700.994568 
	C752.012756,700.994568 752.093323,701.004150 751.898621,700.383240 
	C751.572327,700.096680 751.246033,699.810120 750.997559,699.513489 
	C750.997559,699.513489 750.920166,699.536621 750.963013,698.825500 
	C750.654419,698.522156 750.345886,698.218750 750.010193,697.987000 
	C750.010193,697.987000 750.079163,697.953735 750.020020,697.230713 
	C748.016235,695.124023 746.012451,693.017395 744.007446,690.991516 
	C744.007446,690.991516 744.088318,690.989746 743.957825,690.440308 
	C743.641113,690.265198 743.324341,690.090149 742.995544,690.008606 
	C742.995544,690.008606 743.088806,690.022949 742.979431,689.307861 
	C742.346558,688.188477 741.713684,687.069092 741.000000,686.000000 
	C741.000000,686.000000 741.081665,685.951477 740.951477,685.421448 
	C740.644531,685.251465 740.337585,685.081543 740.013916,684.983276 
	C740.013916,684.983276 740.083679,684.959961 740.022766,684.281677 
	C739.030762,683.161621 738.038818,682.041565 737.016052,680.989258 
	C737.016052,680.989258 737.088135,680.970764 736.954529,680.427917 
	C736.639709,680.256104 736.324890,680.084290 736.008301,679.993652 
	C736.008301,679.993652 736.089539,679.992615 735.938049,679.456970 
	C735.628479,679.274963 735.318909,679.093018 735.007935,678.990234 
	C735.007935,678.990234 735.087158,678.988342 734.962341,678.445496 
	C734.652405,678.267944 734.342407,678.090393 734.013794,677.984131 
	C734.013794,677.984131 734.083557,677.960632 734.021057,677.281311 
	C733.024902,676.160339 732.028809,675.039368 731.017883,673.988647 
	C731.017883,673.988647 731.089661,673.985901 731.006165,673.236084 
	C730.019775,672.131226 729.033325,671.026428 728.016357,669.989319 
	C728.016357,669.989319 728.088440,669.971252 727.954651,669.428101 
	C727.639648,669.256226 727.324707,669.084351 727.010681,668.988953 
	C727.010681,668.988953 727.087036,668.983765 726.901001,668.425476 
	C726.548401,668.334045 726.195801,668.242554 725.299500,667.719666 
	C722.883606,664.452942 720.506226,661.156921 718.043579,657.925781 
	C713.206421,651.579407 708.313660,645.275452 703.458923,638.942383 
	C697.309937,630.921021 691.229309,622.846497 685.013245,614.877502 
	C681.813782,610.775818 678.384705,606.853210 675.032654,602.149170 
	C667.862061,593.070374 660.848083,583.861511 653.461914,574.961609 
	C649.051636,569.647583 643.947144,564.915283 639.377075,559.725708 
	C637.368591,557.445007 635.914062,554.676514 633.450928,550.999268 
	C638.117310,550.999268 640.923218,551.143372 643.708557,550.965576 
	C647.932007,550.695923 652.141296,550.202454 657.053833,549.912415 
	C658.053528,549.632935 659.053162,549.353455 660.005676,548.999390 
	C660.005676,548.999390 660.038940,549.080505 660.765808,549.068481 
	C661.686768,548.368896 662.607727,547.669312 663.485718,546.958008 
	C663.485718,546.958008 663.458252,546.993164 664.221008,547.034912 
	C665.168213,545.713867 666.115479,544.392822 667.002441,543.002441 
	C667.002441,543.002441 667.060181,543.069885 667.605835,542.995239 
	C667.760498,542.683594 667.915161,542.371887 668.010071,541.997192 
	C668.010071,541.997192 668.079956,542.050964 668.719299,541.899109 
	C668.841003,541.269897 668.962708,540.640686 669.014221,540.007874 
	C669.014221,540.007874 669.044067,540.071472 669.701721,539.911255 
	C669.866089,539.268494 670.030457,538.625671 670.844849,537.585815 
	C671.315125,535.061523 671.785400,532.537231 672.929260,529.625793 
	C673.307861,528.280090 673.995300,526.938416 674.013000,525.587891 
	C674.102722,518.766235 673.997864,511.942352 674.000061,505.119263 
	C674.002686,496.977264 674.143555,488.833191 673.972351,480.695282 
	C673.943665,479.333313 672.634583,477.998291 671.690308,476.124054 
	C671.370117,475.917267 671.049866,475.710480 670.744751,474.776733 
	C669.843811,472.490479 668.942810,470.204224 668.015625,467.987000 
	C668.015625,467.987000 668.087097,467.968353 668.019470,467.215912 
	C665.447876,460.667358 659.388916,461.053223 653.056580,459.979279 
	C611.006104,459.967041 568.955566,459.945526 526.905151,459.985565 
	C525.585266,459.986816 524.266113,460.623413 523.006287,460.987579 
	C523.006287,460.987579 522.997864,460.923920 522.212402,461.331116 
	C522.140808,461.988586 522.006714,462.646027 522.006592,463.303497 
	C521.997925,514.489746 521.992859,565.676025 522.045898,616.862183 
	C522.047058,618.020874 522.716675,619.178894 523.011719,621.072754 
	C524.708740,622.067993 526.343933,623.764832 528.114929,623.920898 
	C532.588379,624.315002 537.124268,624.068481 541.631714,623.948608 
	C542.481262,623.925964 543.314880,623.302368 544.948059,622.970642 
	C549.665344,622.576477 548.791931,618.604065 548.849731,615.958984 
	C548.968018,610.552490 548.092407,605.131775 548.031189,599.712341 
	C547.890137,587.231506 547.873840,574.746643 548.025879,562.265991 
	C548.193115,548.543457 548.784607,534.824707 548.846497,521.102722 
	C548.885925,512.376465 548.389587,503.642639 547.946106,494.921692 
	C547.764771,491.356140 548.807007,489.889496 552.670959,489.909576 
	C583.125793,490.067902 613.581665,490.043365 644.050781,489.974457 
	C644.050781,489.974457 643.953125,489.946289 644.080261,490.321899 
	C644.184204,490.596741 644.381958,490.751923 645.440796,490.993530 
	C649.636536,491.975006 651.124878,494.804443 651.023193,498.887970 
	C650.920532,503.013458 651.001099,507.143433 651.000000,511.271454 
	C650.997253,522.050354 650.042786,523.418762 639.659424,526.161011 
	C616.549011,526.104675 593.438538,526.037598 570.328125,526.035034 
	C569.497864,526.034973 568.667542,526.670227 567.122620,527.484802 
	C567.064880,533.803650 567.161987,540.129089 566.891663,546.438782 
	C566.727600,550.269836 568.290283,551.249695 571.900879,551.137573 
	C580.068176,550.884033 588.265808,550.701782 596.412598,551.165771 
	C599.377747,551.334534 602.856812,552.750977 605.018372,554.762146 
	C610.694214,560.042969 615.775696,565.962769 621.091492,571.630310 
	C626.116516,576.987793 631.160889,582.327515 636.156433,587.712341 
	C643.484253,595.611145 650.776306,603.543152 658.036865,612.190674 
	C659.011475,613.155090 659.986145,614.119446 660.980713,615.013916 
	C660.980713,615.013916 660.908630,615.022705 661.038269,615.561035 
	C661.347046,615.736572 661.655884,615.912048 661.997498,616.011414 
	C661.997498,616.011414 661.932129,616.062500 661.978943,616.765991 
	C663.296875,617.864441 664.614868,618.962952 665.989136,620.000916 
	C665.989136,620.000916 665.911316,620.028992 666.041748,620.566772 
	C666.351440,620.740723 666.661072,620.914673 666.983032,621.017273 
	C666.983032,621.017273 666.911743,621.030090 667.043701,621.569702 
	C667.355347,621.743164 667.666992,621.916687 667.983154,622.017151 
	C667.983154,622.017151 667.910156,622.022461 668.043518,622.568542 
	C668.359741,622.741577 668.676025,622.914673 668.989868,623.015991 
	C668.989868,623.015991 668.919617,623.030579 669.038513,623.503052 
	C669.519226,623.915344 669.999939,624.327576 671.175232,624.980469 
	C671.419312,625.002380 671.663330,625.024353 671.991516,625.748230 
	C677.319702,631.772034 682.545349,637.890442 687.997314,643.800049 
	C699.359009,656.115417 710.840393,668.320312 722.265686,681.028625 
	C722.535217,681.358337 722.804749,681.688049 722.995117,681.929565 
	C722.995117,681.929565 722.895935,681.994446 723.008850,682.639282 
	C723.321838,683.117676 723.634766,683.596069 723.984558,684.008240 
	C723.984558,684.008240 723.911499,684.028320 724.042480,684.566284 
	C724.352295,684.740295 724.662109,684.914307 724.983398,685.016968 
	C724.983398,685.016968 724.912231,685.029419 725.047180,685.571472 
	C725.361755,685.743652 725.676270,685.915833 725.993042,686.005371 
	C725.993042,686.005371 725.910339,686.005432 725.998474,686.736084 
	C727.320801,688.184387 728.643127,689.632751 729.981445,691.011169 
	C729.981445,691.011169 729.909851,691.015564 730.070557,691.545288 
	C730.378845,691.726929 730.687073,691.908569 730.995056,692.007263 
	C730.995056,692.007263 730.912109,692.009827 731.036804,692.554749 
	C731.348022,692.732666 731.659302,692.910645 731.982300,693.017029 
	C731.982300,693.017029 731.910522,693.027283 732.045105,693.563782 
	C732.354309,693.738953 732.663452,693.914124 732.982483,694.017517 
	C732.982483,694.017517 732.910583,694.027283 733.045105,694.563782 
	C733.354248,694.739014 733.663391,694.914185 733.982727,695.017578 
	C733.982727,695.017578 733.911011,695.028503 734.044617,695.568481 
	C734.356628,695.742554 734.668640,695.916626 734.984253,696.017822 
	C734.984253,696.017822 734.911743,696.026306 734.982361,696.747559 
	C735.994873,697.558960 737.007324,698.370300 738.200989,699.758850 
	C738.547424,699.957336 738.893860,700.155823 739.287170,700.516785 
	C739.287170,700.516785 739.554932,700.717896 739.912170,701.365601 
	C747.204529,709.349426 754.533691,717.300110 761.772156,725.332520 
	C764.905090,728.809082 767.850830,732.454285 771.003784,736.658936 
	C771.317505,737.130493 771.631287,737.602051 771.985168,738.007629 
	C771.985168,738.007629 771.911133,738.029663 772.038940,738.562622 
	C772.344421,738.736206 772.649963,738.909790 772.999451,739.004272 
	C772.999451,739.004272 772.937439,739.069946 772.979614,739.774719 
	C774.650330,741.212280 776.320984,742.649902 778.001038,743.996216 
	C778.001038,743.996216 777.909851,743.985901 777.998047,744.629333 
	C778.306641,745.104736 778.615234,745.580200 778.997559,746.000000 
	C778.997559,746.000000 778.917175,746.045837 779.048218,746.577759 
	C779.356201,746.748291 779.664185,746.918823 779.982483,747.017578 
	C779.982483,747.017578 779.910706,747.028259 780.042847,747.568359 
	C780.354675,747.741821 780.666443,747.915283 780.984009,748.016541 
	C780.984009,748.016541 780.912170,748.025391 780.993958,748.688110 
	C781.639160,749.479980 782.284363,750.271851 782.994934,751.001221 
	C782.994934,751.001221 782.915527,751.044495 783.044312,751.572021 
	C783.348145,751.742859 783.651978,751.913696 783.987793,752.012573 
	C783.987793,752.012573 783.916382,752.045898 784.046204,752.574951 
	C784.351746,752.745544 784.657288,752.916138 784.984436,753.015808 
	C784.984436,753.015808 784.913574,753.037842 785.042114,753.568176 
	C785.346924,753.740417 785.651794,753.912720 785.993896,754.009644 
	C785.993896,754.009644 785.925354,754.058228 786.088806,754.636658 
	C786.706299,755.115784 787.323792,755.594910 787.990723,756.005737 
	C787.990723,756.005737 787.915405,756.043640 788.045288,756.573486 
	C788.350952,756.744751 788.656677,756.916016 788.984253,757.016052 
	C788.984253,757.016052 788.913208,757.038452 789.043152,757.569824 
	C789.349243,757.742126 789.655273,757.914429 789.984375,758.015625 
	C789.984375,758.015625 789.913208,758.038452 790.043152,758.569824 
	C790.349243,758.742126 790.655334,758.914429 790.995972,759.009644 
	C790.995972,759.009644 790.930054,759.062561 791.132080,759.691101 
	C792.058838,760.825745 792.985657,761.960327 794.051331,763.586975 
	C794.337280,763.753662 794.623169,763.920410 795.050598,764.585327 
	C795.339539,764.749878 795.628540,764.914429 796.050232,765.583191 
	C796.341736,765.746216 796.633240,765.909180 796.979492,766.797058 
	C798.626831,768.556885 800.274170,770.316650 801.979431,772.745056 
	C802.954895,773.859924 803.930298,774.974792 804.978455,776.806885 
	C806.622986,778.567932 808.267517,780.328979 810.189392,782.754333 
	C812.787659,785.579529 815.385925,788.404724 818.041931,791.663574 
	C818.210022,791.954773 818.459656,792.070801 818.984070,792.753662 
	C819.682800,797.251282 823.371033,797.729736 826.893494,798.741577 
	C826.803955,796.600830 826.619812,794.535767 825.561829,793.127075 
	C818.866638,784.212952 812.025696,775.406311 805.113586,766.658508 
	C803.700256,764.869995 801.779663,763.482361 800.023560,761.176270 
	C798.348328,758.708313 796.890625,756.052063 794.951782,753.812195 
	C791.129700,749.396851 787.040833,745.212402 783.008850,740.996948 
	C783.008850,740.996948 783.084534,740.960754 783.020569,740.300171 
	C782.373108,739.515625 781.725647,738.731018 781.017517,737.983154 
	C781.017517,737.983154 781.055908,737.923401 781.021545,737.188232 
	C779.371277,735.438477 777.721008,733.688782 776.005920,731.999939 
	C776.005920,731.999939 776.085205,731.959595 775.953857,731.427124 
	C775.646301,731.255310 775.338745,731.083557 775.017029,730.982910 
M237.006622,492.007324 
	C237.006622,492.007324 237.046097,492.075592 237.595871,492.000854 
	C237.753265,491.688019 237.910645,491.375183 238.011551,490.998230 
	C238.011551,490.998230 238.045746,491.076355 238.681244,490.940918 
	C238.960617,490.609741 239.239990,490.278564 239.497238,489.962311 
	C239.497238,489.962311 239.471069,489.967560 240.500534,489.993011 
	C267.605743,489.994354 294.711121,490.040497 321.815918,489.935364 
	C324.899689,489.923401 326.831879,490.537476 326.125519,494.373688 
	C326.416870,521.392700 326.729523,548.411499 326.986847,575.430786 
	C327.066040,583.746765 327.117157,592.066711 326.950836,600.380249 
	C326.829224,606.459290 326.187988,612.528992 326.107239,618.607178 
	C326.088593,620.011658 327.412384,621.433960 328.929840,623.068665 
	C334.635315,623.074219 340.340790,623.079773 346.767609,622.692383 
	C347.185211,621.029480 347.957886,619.368347 347.965881,617.703491 
	C348.053009,599.579285 348.043823,581.454346 348.014679,563.329773 
	C347.974884,538.558594 347.895081,513.787354 347.969574,488.340637 
	C347.926758,487.885925 347.883942,487.431244 347.961426,486.045929 
	C347.961426,477.456512 347.961426,468.867096 347.961426,460.245453 
	C347.063568,460.130432 346.592987,460.017578 346.122345,460.017303 
	C306.537842,459.995514 266.953308,459.973663 227.368835,460.011597 
	C226.189331,460.012726 225.010452,460.648193 223.220016,461.251648 
	C213.777481,473.276489 204.443207,485.388916 194.830521,497.276184 
	C191.690369,501.159363 189.283340,506.255676 182.823807,506.032318 
	C174.544464,505.745972 166.251083,505.864777 157.957703,504.958893 
	C153.218521,504.569489 148.479340,504.180115 143.740158,503.790710 
	C143.707291,504.365875 143.674438,504.941040 143.641571,505.516235 
	C144.907272,505.748718 146.172974,505.981201 147.181503,506.166443 
	C147.181503,517.441406 147.181503,528.317261 147.181503,539.762268 
	C130.880768,539.762268 115.004021,539.762268 99.162819,539.762268 
	C97.505615,552.283386 98.492386,588.166626 100.661774,589.985535 
	C100.424919,588.960022 100.054558,588.098694 100.052361,587.236511 
	C100.015030,572.593750 99.994064,557.950806 100.044655,543.308167 
	C100.055702,540.110779 101.657875,538.544250 105.072906,538.687134 
	C113.381172,539.034607 121.701775,539.090759 130.009338,539.450439 
	C137.312302,539.766602 144.604294,540.335449 152.841232,540.970886 
	C166.775330,540.979431 180.709564,541.018372 194.643326,540.952881 
	C196.153366,540.945801 197.660583,540.334290 199.781403,539.768127 
	C204.873230,533.811279 210.257767,528.076599 214.986496,521.844238 
	C221.648163,513.064331 227.823944,503.915710 234.511688,494.400208 
	C234.372986,494.253204 234.234283,494.106171 233.966522,493.980408 
	C233.966522,493.980408 233.977783,494.110718 234.570358,494.567230 
	C235.071655,494.041595 235.572937,493.515961 236.003036,492.998047 
	C236.003036,492.998047 236.011185,493.069183 236.567230,492.987793 
	C236.736725,492.673615 236.906219,492.359467 237.006622,492.007324 
M422.005615,621.991760 
	C422.005615,621.991760 421.965973,621.999634 422.113770,622.823669 
	C429.961548,623.184631 437.809296,623.547485 445.659851,623.831421 
	C445.688416,623.832458 445.758209,622.693604 446.539429,622.041443 
	C447.676208,620.875244 448.812988,619.709106 450.790497,618.190002 
	C451.200470,616.412903 451.964996,614.636475 451.968201,612.858643 
	C452.036835,574.596069 452.002502,536.333313 452.070099,498.070770 
	C452.073700,496.032410 452.798553,493.995331 453.346466,492.001648 
	C453.346466,492.001648 453.507660,492.035736 454.539062,492.034302 
	C472.070679,492.297333 489.602264,492.560333 507.824371,492.580719 
	C508.889404,491.066650 510.867157,489.552185 510.866425,488.038605 
	C510.862701,480.176147 510.387878,472.312256 509.985168,464.453552 
	C509.926514,463.308502 509.373016,462.188812 508.105560,461.027100 
	C459.553253,461.027100 411.000977,461.027100 361.996765,461.027100 
	C361.996765,468.707794 361.913452,475.827240 362.043549,482.942810 
	C362.087036,485.321991 362.675659,487.691254 363.152191,490.765228 
	C364.429230,491.178375 365.706268,491.591522 367.920807,492.084015 
	C382.168213,492.064972 396.415894,491.997650 410.662811,492.073578 
	C413.088196,492.086517 415.510284,492.713440 418.069366,493.978394 
	C418.089752,530.680420 418.087372,567.382446 418.163940,604.084351 
	C418.172058,607.971680 418.643005,611.858032 418.951477,616.454529 
	C419.615387,617.891235 420.279327,619.328003 420.936890,621.435242 
	C421.292297,621.634155 421.647705,621.833069 422.005615,621.991760 
M683.848999,532.924255 
	C683.848999,537.473389 683.848999,542.022461 683.848999,546.571594 
	C684.235535,546.574097 684.622009,546.576538 685.008545,546.579041 
	C685.008545,541.721802 685.008545,536.864563 685.032837,531.069336 
	C685.032837,520.255371 685.032837,509.441437 685.032837,498.627472 
	C684.688171,498.630249 684.343506,498.633057 683.998840,498.635834 
	C683.998840,509.757568 683.998840,520.879333 683.848999,532.924255 
M716.016785,535.961914 
	C716.016785,524.865417 716.016785,513.768982 716.016785,502.672485 
	C715.710022,502.667877 715.403320,502.663300 715.096558,502.658691 
	C715.096558,514.066711 715.096558,525.474731 714.938538,537.830200 
	C714.938538,551.976501 714.938538,566.122803 714.938538,580.269165 
	C715.252380,580.266418 715.566284,580.263733 715.880127,580.261047 
	C715.880127,565.798950 715.880127,551.336853 716.016785,535.961914 
M861.077637,460.735046 
	C863.015076,461.421112 864.952515,462.107147 866.229370,462.559296 
	C864.140320,457.609344 859.289185,457.364014 854.304871,458.095123 
	C852.825256,458.312134 851.541077,459.861206 850.029785,461.753571 
	C850.005981,482.238525 849.949768,502.723511 849.971741,523.208435 
	C849.983154,533.858154 850.132690,544.507690 850.192627,556.072693 
	C850.192627,573.812805 850.192627,591.552917 850.192627,609.293030 
	C850.389099,609.293152 850.585510,609.293274 850.781982,609.293396 
	C850.781982,591.248352 850.781982,573.203369 851.004883,554.223938 
	C851.005127,523.152527 851.005371,492.081085 851.726807,460.762177 
	C854.439941,462.575775 857.153076,464.389374 860.219116,466.438904 
	C859.639954,464.552856 859.064819,462.679932 859.568542,460.821014 
	C859.884338,460.648895 860.200134,460.476746 861.077637,460.735046 
M974.165222,468.329041 
	C974.165222,486.801880 974.165222,505.274750 974.165222,523.747620 
	C974.631653,523.742920 975.098145,523.738281 975.564575,523.733643 
	C975.564575,505.209656 975.564575,486.685669 975.942993,467.530853 
	C977.636841,465.490326 979.330688,463.449768 981.323608,461.048920 
	C975.420044,462.758728 974.897461,463.371216 974.165222,468.329041 
M885.355164,512.898926 
	C885.382141,513.140076 885.409180,513.381165 885.436157,513.622314 
	C885.318115,513.628479 885.200073,513.634644 885.082031,513.640747 
	C885.076782,513.401001 885.071472,513.161316 884.476685,513.223083 
	C883.678345,512.885620 882.879944,512.548096 882.314819,512.309204 
	C882.314819,544.532166 882.314819,577.003845 882.314819,609.475586 
	C883.020081,582.707886 883.041992,555.946289 882.943481,529.185120 
	C882.939331,528.065979 881.960144,526.832825 881.179626,525.857361 
	C879.191528,523.372620 879.993042,514.160461 882.593506,512.432434 
	C883.087769,512.104004 884.181946,512.678345 885.355164,512.898926 
M67.072449,427.189301 
	C66.706123,428.909271 66.024376,430.628510 66.020477,432.349274 
	C65.955078,461.185852 65.952980,490.022583 65.980537,518.859253 
	C66.010788,550.515259 66.084297,582.171265 66.147163,613.827271 
	C66.149330,614.917725 66.239830,616.007996 66.354790,618.549194 
	C66.757332,616.760986 66.889793,616.446838 66.890068,616.132568 
	C66.941620,556.152771 66.962067,496.172943 67.092567,436.193359 
	C67.098869,433.294037 68.070419,430.396790 69.041107,427.061676 
	C69.095291,426.933350 69.213600,426.791779 69.190460,426.679382 
	C69.140236,426.435364 69.017746,426.206207 69.783279,425.981842 
	C76.235374,425.700531 82.686943,425.190887 89.139656,425.175995 
	C123.953766,425.095612 158.768173,425.137970 193.582474,425.137970 
	C192.432251,424.493805 191.133896,424.013397 189.835052,424.012085 
	C150.517990,423.972351 111.200851,423.965363 71.884010,424.066437 
	C70.940575,424.068848 70.000458,425.359985 68.500687,425.943451 
	C68.263649,426.224487 68.026611,426.505554 67.072449,427.189301 
M837.020325,550.500000 
	C837.020325,532.346313 837.020325,514.192566 837.020325,496.038879 
	C836.461426,496.051758 835.902527,496.064636 835.343628,496.077515 
	C835.343628,528.121948 835.343628,560.166321 835.343628,592.406372 
	C838.150818,585.841248 836.791992,579.088745 836.976440,572.494507 
	C837.171997,565.501404 837.020325,558.498596 837.020325,550.500000 
M121.500031,458.960419 
	C113.760780,458.960419 106.021523,458.960419 98.719025,458.960419 
	C98.719025,475.101410 98.719025,490.397156 98.719025,505.692871 
	C99.485519,500.478210 98.962234,495.307434 99.021294,490.143372 
	C99.113899,482.046875 100.392555,473.880524 99.643478,465.886749 
	C99.134247,460.452515 100.777321,459.956024 105.191963,459.975647 
	C132.313568,460.096069 159.435989,460.029968 186.558136,460.026001 
	C188.149841,460.025787 189.741531,460.026031 191.333237,460.026031 
	C191.322556,459.670563 191.311859,459.315063 191.301178,458.959595 
	C168.367447,458.959595 145.433731,458.959595 121.500031,458.960419 
M1007.123413,600.496826 
	C1007.123413,605.693237 1007.123413,610.889587 1007.123413,616.085999 
	C1007.341125,616.081116 1007.558777,616.076233 1007.776489,616.071411 
	C1007.776489,567.646606 1007.776489,519.221863 1007.776489,470.797119 
	C1007.557983,470.796600 1007.339417,470.796112 1007.120911,470.795593 
	C1007.120911,513.696411 1007.120911,556.597168 1007.123413,600.496826 
M74.947823,623.009338 
	C113.722298,623.009338 152.496765,623.009338 191.271240,623.009338 
	C191.270599,622.760437 191.269943,622.511475 191.269302,622.262573 
	C151.404907,622.262573 111.540512,622.262573 71.676117,622.262573 
	C71.669098,622.419556 71.662086,622.576538 71.655067,622.733459 
	C72.460449,622.825256 73.265831,622.916992 74.947823,623.009338 
M755.357483,490.976288 
	C748.060059,490.976288 740.762573,490.976288 733.465149,490.976288 
	C733.471130,490.831238 733.477112,490.686188 733.483093,490.541168 
	C752.963684,491.180756 772.444214,491.820312 791.924805,492.459900 
	C791.937500,492.000153 791.950195,491.540375 791.962891,491.080627 
	C780.082397,491.080627 768.201843,491.080627 755.357483,490.976288 
M806.007141,512.661255 
	C806.007141,510.241913 806.007141,507.822601 806.007141,505.403259 
	C805.694946,505.406097 805.382751,505.408936 805.070557,505.411743 
	C805.070557,529.573059 805.070557,553.734375 805.070557,577.895691 
	C805.381653,577.895081 805.692688,577.894409 806.003784,577.893738 
	C806.003784,556.467957 806.003784,535.042114 806.007141,512.661255 
M755.500000,621.941650 
	C745.227173,621.941650 734.954285,621.941650 724.681458,621.941650 
	C724.687439,622.208923 724.693420,622.476135 724.699402,622.743408 
	C749.567200,622.743408 774.434937,622.743408 799.302734,622.743408 
	C799.303101,622.476074 799.303467,622.208740 799.303772,621.941406 
	C785.035889,621.941406 770.767944,621.941406 755.500000,621.941650 
M975.118591,558.752502 
	C975.118591,563.787720 975.118591,568.822876 975.118591,573.858093 
	C975.204285,573.864136 975.290039,573.870178 975.375732,573.876221 
	C975.375732,557.887512 975.375732,541.898865 975.375732,525.910217 
	C975.289490,525.909119 975.203308,525.908081 975.117065,525.906982 
	C975.117065,536.547913 975.117065,547.188904 975.118591,558.752502 
M785.362488,592.030396 
	C787.841675,592.030396 790.320862,592.030396 792.800049,592.030396 
	C792.800049,591.767761 792.800049,591.505066 792.799988,591.242432 
	C771.367554,591.242432 749.935059,591.242432 728.502625,591.242432 
	C728.501404,591.505371 728.500244,591.768250 728.499023,592.031189 
	C747.132935,592.031189 765.766846,592.031189 785.362488,592.030396 
M194.650330,620.949585 
	C195.440155,619.401306 196.850800,617.876953 196.911713,616.300537 
	C197.167435,609.682007 197.052704,603.047424 196.979752,596.419800 
	C196.969879,595.522705 196.427643,594.631409 195.846207,592.873779 
	C195.395309,594.238220 195.224899,594.527954 195.212463,594.824341 
	C194.857529,603.293701 194.518417,611.763733 194.650330,620.949585 
M159.500183,588.924255 
	C152.439102,588.924255 145.378036,588.924255 138.316956,588.924255 
	C138.323227,589.230042 138.329483,589.535828 138.335754,589.841614 
	C156.129898,589.841614 173.924057,589.841614 191.718201,589.841614 
	C191.721451,589.535645 191.724701,589.229614 191.727951,588.923645 
	C181.318665,588.923645 170.909378,588.923645 159.500183,588.924255 
M806.125793,462.633606 
	C805.158875,462.786102 804.191895,462.938568 803.224976,463.091034 
	C803.319397,462.516205 803.413818,461.941376 803.508240,461.366547 
	C809.580078,463.434875 815.651917,465.503204 822.177917,467.726227 
	C817.691467,463.283142 812.851074,461.273010 806.125793,462.633606 
M112.548904,590.066284 
	C109.334023,590.066284 106.119141,590.066284 102.904259,590.066284 
	C102.908768,590.262451 102.913269,590.458618 102.917778,590.654785 
	C113.744621,590.654785 124.571465,590.654785 135.398300,590.654785 
	C135.397964,590.459412 135.397614,590.264038 135.397263,590.068665 
	C128.109619,590.068665 120.821976,590.068665 112.548904,590.066284 
M684.318359,554.597168 
	C684.318359,552.507629 684.318359,550.418091 684.318359,548.328491 
	C683.984131,548.352722 683.649902,548.376892 683.315674,548.401123 
	C683.315674,559.171875 683.315674,569.942627 683.315674,580.713379 
	C683.648987,580.717285 683.982361,580.721252 684.315674,580.725159 
	C684.315674,572.341858 684.315674,563.958496 684.318359,554.597168 
M740.072388,461.115479 
	C733.056030,461.115479 726.039612,461.115479 719.023254,461.115479 
	C719.028625,461.315125 719.034058,461.514771 719.039429,461.714417 
	C727.312622,461.714417 735.585815,461.714417 743.859009,461.714417 
	C743.858032,461.514893 743.857056,461.315369 743.856079,461.115845 
	C742.882568,461.115845 741.909058,461.115845 740.072388,461.115479 
M748.921631,460.017181 
	C748.137390,460.154816 747.353088,460.292450 746.568848,460.430084 
	C746.599121,460.559631 746.629395,460.689209 746.659668,460.818756 
	C754.946472,460.818756 763.233337,460.818756 771.520203,460.818756 
	C771.521912,460.553925 771.523621,460.289124 771.525330,460.024292 
	C764.296997,460.024292 757.068665,460.024292 748.921631,460.017181 
M781.610962,461.926086 
	C786.402405,461.926086 791.193909,461.926086 795.985352,461.926086 
	C795.976135,461.726807 795.966858,461.527557 795.957642,461.328278 
	C788.710571,461.328278 781.463501,461.328278 774.216431,461.328278 
	C774.218018,461.526581 774.219666,461.724884 774.221252,461.923187 
	C776.367920,461.923187 778.514587,461.923187 781.610962,461.926086 
M683.978027,584.100830 
	C683.978027,585.921448 683.978027,587.742065 683.978027,589.562683 
	C684.453796,589.524780 684.929565,589.486938 685.405334,589.449097 
	C684.958069,587.410400 684.510742,585.371765 683.978027,584.100830 
M685.849548,591.879822 
	C685.745972,591.753723 685.642395,591.627686 685.538818,591.501709 
	C685.436890,591.594238 685.236328,591.704041 685.248962,591.776428 
	C685.339539,592.293884 685.473511,592.803833 685.593750,593.316101 
	C685.706360,593.022827 685.819031,592.729553 685.849548,591.879822 
M835.311768,594.535645 
	C835.125854,594.495972 834.940002,594.456299 834.754089,594.416565 
	C834.883545,594.395203 835.012939,594.373840 835.311768,594.535645 
M796.104736,590.421509 
	C795.983276,590.422974 795.861755,590.424438 795.740295,590.425964 
	C795.916321,590.473572 796.092285,590.521118 796.104736,590.421509 
z"/>
<path fill="#0295BE" opacity="1.000000" stroke="none" 
	d="
M544.155823,622.956055 
	C543.314880,623.302368 542.481262,623.925964 541.631714,623.948608 
	C537.124268,624.068481 532.588379,624.315002 528.114929,623.920898 
	C526.343933,623.764832 524.708740,622.067993 523.132202,620.216553 
	C523.162964,617.032715 522.995422,614.704956 522.994934,612.377258 
	C522.984680,561.892822 522.993042,511.408356 522.997864,460.923920 
	C522.997864,460.923920 523.006287,460.987579 523.445374,461.034637 
	C567.273926,461.041351 610.663330,461.001007 654.399048,461.062622 
	C659.192627,463.432495 663.639832,465.700409 668.087097,467.968353 
	C668.087097,467.968353 668.015625,467.987000 667.828735,468.290771 
	C668.671082,470.897583 669.700378,473.200653 670.729675,475.503693 
	C671.049866,475.710480 671.370117,475.917267 671.705933,476.835419 
	C672.148804,481.307709 672.956238,485.070801 672.935181,488.829193 
	C672.858093,502.557953 672.504822,516.285156 672.255615,530.012939 
	C671.785400,532.537231 671.315125,535.061523 670.150818,537.839355 
	C669.319214,538.752441 669.181641,539.411987 669.044067,540.071472 
	C669.044067,540.071472 669.014221,540.007874 668.654053,540.047546 
	C668.222595,540.741821 668.151306,541.396362 668.079956,542.050964 
	C668.079956,542.050964 668.010071,541.997192 667.661743,541.863281 
	C667.229004,542.176208 667.144592,542.623047 667.060181,543.069885 
	C667.060181,543.069885 667.002441,543.002441 666.710815,542.800659 
	C665.432190,544.063721 664.445251,545.528442 663.458252,546.993164 
	C663.458252,546.993164 663.485718,546.958008 663.117981,546.787842 
	C661.846497,547.438599 660.942688,548.259521 660.038940,549.080444 
	C660.038940,549.080505 660.005676,548.999390 659.765503,548.792969 
	C658.469116,548.992371 657.412842,549.398254 656.356567,549.804077 
	C652.141296,550.202454 647.932007,550.695923 643.708557,550.965576 
	C640.923218,551.143372 638.117310,550.999268 633.450928,550.999268 
	C635.914062,554.676514 637.368591,557.445007 639.377075,559.725708 
	C643.947144,564.915283 649.051636,569.647583 653.461914,574.961609 
	C660.848083,583.861511 667.862061,593.070374 674.993896,602.856812 
	C671.935242,608.468689 668.915405,613.372925 665.578552,618.102905 
	C664.151794,617.306519 663.041931,616.684509 661.932129,616.062500 
	C661.932129,616.062500 661.997498,616.011414 662.143555,615.677734 
	C661.829224,615.236877 661.368958,615.129822 660.908630,615.022705 
	C660.908630,615.022705 660.980713,615.013916 661.152710,614.708740 
	C660.244324,613.422729 659.163940,612.441833 658.083557,611.460999 
	C650.776306,603.543152 643.484253,595.611145 636.156433,587.712341 
	C631.160889,582.327515 626.116516,576.987793 621.091492,571.630310 
	C615.775696,565.962769 610.694214,560.042969 605.018372,554.762146 
	C602.856812,552.750977 599.377747,551.334534 596.412598,551.165771 
	C588.265808,550.701782 580.068176,550.884033 571.900879,551.137573 
	C568.290283,551.249695 566.727600,550.269836 566.891663,546.438782 
	C567.161987,540.129089 567.064880,533.803650 567.953247,527.329468 
	C592.548828,527.094238 616.313843,527.014343 640.078796,526.934387 
	C650.042786,523.418762 650.997253,522.050354 651.000000,511.271454 
	C651.001099,507.143433 650.920532,503.013458 651.023193,498.887970 
	C651.124878,494.804443 649.636536,491.975006 644.961182,490.730438 
	C644.227966,490.372528 644.051758,490.198822 643.953125,489.946289 
	C643.953125,489.946289 644.050781,489.974457 643.814331,489.658813 
	C642.261108,489.234711 640.944336,489.031921 639.627502,489.031799 
	C610.684082,489.028473 581.740173,489.135193 552.797791,488.970032 
	C548.349548,488.944641 546.878662,489.976105 546.903137,494.718994 
	C547.109375,534.808472 547.084167,574.899597 546.911743,614.989258 
	C546.900269,617.648743 545.115662,620.300659 544.155823,622.956055 
z"/>
<path fill="#020203" opacity="1.000000" stroke="none" 
	d="
M366.983276,492.004700 
	C365.706268,491.591522 364.429230,491.178375 363.079468,489.940033 
	C363.006714,480.199646 363.006714,471.284485 363.006714,462.294067 
	C364.531647,462.117889 365.337189,461.942719 366.142548,461.943512 
	C413.707886,461.990784 461.273193,462.052612 508.899994,462.570587 
	C508.966400,470.944641 509.064301,478.863129 508.893250,486.775787 
	C508.861267,488.255524 507.751953,489.711945 506.667084,491.108459 
	C490.174225,491.018311 474.153961,490.969879 458.134064,491.025726 
	C456.590790,491.031097 455.049744,491.683655 453.507660,492.035767 
	C453.507660,492.035736 453.346466,492.001648 452.799011,491.889435 
	C451.747162,493.463715 450.806610,495.149139 450.802521,496.836823 
	C450.713776,533.455078 450.752930,570.073669 450.691040,606.692017 
	C450.684387,610.642700 450.208160,614.592651 449.949768,618.542908 
	C448.812988,619.709106 447.676208,620.875244 445.804352,622.233398 
	C437.368164,622.283386 429.667084,622.141541 421.965973,621.999634 
	C421.965973,621.999634 422.005615,621.991760 422.186523,621.647705 
	C421.892731,621.124023 421.417969,620.944397 420.943237,620.764709 
	C420.279327,619.328003 419.615387,617.891235 418.884277,615.648438 
	C418.742554,613.847351 418.600830,612.852173 418.603241,611.857300 
	C418.695862,573.557495 418.813812,535.257690 418.865448,496.957855 
	C418.867767,495.254211 418.282318,493.549744 417.687714,491.542114 
	C401.104340,491.149414 384.803925,491.050903 368.503357,491.014923 
	C367.997406,491.013824 367.490021,491.660217 366.983276,492.004700 
z"/>
<path fill="#0295BE" opacity="1.000000" stroke="none" 
	d="
M347.841125,486.976532 
	C347.883942,487.431244 347.926758,487.885925 347.625854,488.753723 
	C347.024994,489.441254 346.767822,489.715698 346.101440,489.991882 
	C339.687561,489.716492 333.682831,489.439362 327.235748,489.121765 
	C299.071899,489.057465 271.350372,489.019836 243.628937,489.050751 
	C242.242645,489.052307 240.857010,489.648315 239.471069,489.967529 
	C239.471069,489.967560 239.497238,489.962311 239.070206,489.774170 
	C238.444031,490.082794 238.244888,490.579559 238.045746,491.076355 
	C238.045746,491.076355 238.011551,490.998230 237.676941,490.857483 
	C237.243591,491.169678 237.144836,491.622620 237.046082,492.075592 
	C237.046097,492.075592 237.006622,492.007324 236.703079,491.925171 
	C236.270096,492.251740 236.140640,492.660461 236.011185,493.069183 
	C236.011185,493.069183 236.003036,492.998047 235.742462,493.059784 
	C234.980530,493.451263 234.479156,493.781006 233.977783,494.110718 
	C233.977783,494.110718 233.966522,493.980408 233.954224,494.109924 
	C233.753540,494.496674 233.842072,494.725128 234.207489,494.924744 
	C227.823944,503.915710 221.648163,513.064331 214.986496,521.844238 
	C210.257767,528.076599 204.873230,533.811279 198.995941,539.853027 
	C182.781769,540.022827 167.353043,540.107788 151.649506,539.862549 
	C151.374695,528.465759 151.374695,517.399231 151.374695,506.112885 
	C153.699097,506.005676 155.831421,505.907349 157.963760,505.809021 
	C166.251083,505.864777 174.544464,505.745972 182.823807,506.032318 
	C189.283340,506.255676 191.690369,501.159363 194.830521,497.276184 
	C204.443207,485.388916 213.777481,473.276489 224.005432,461.152039 
	C265.363037,461.052460 305.935242,461.052460 347.028595,461.052460 
	C347.028595,465.252441 346.928497,468.726410 347.052551,472.192352 
	C347.229065,477.123505 347.570251,482.048767 347.841125,486.976532 
z"/>
<path fill="#079EC2" opacity="1.000000" stroke="none" 
	d="
M327.678101,489.162231 
	C333.682831,489.439362 339.687561,489.716492 346.191467,490.453217 
	C346.475861,534.970337 346.261078,579.027771 346.046265,623.085266 
	C340.340790,623.079773 334.635315,623.074219 328.447754,622.505005 
	C327.941162,618.946655 327.900208,615.951965 327.894592,612.957153 
	C327.820251,573.339539 327.750885,533.721985 327.791077,493.701843 
	C327.827301,491.920288 327.752716,490.541260 327.678101,489.162231 
z"/>
<path fill="#0B9BC9" opacity="1.000000" stroke="none" 
	d="
M665.895508,618.277161 
	C668.915405,613.372925 671.935242,608.468689 675.007202,603.207092 
	C678.384705,606.853210 681.813782,610.775818 685.013245,614.877502 
	C691.229309,622.846497 697.309937,630.921021 703.458923,638.942383 
	C708.313660,645.275452 713.206421,651.579407 718.043579,657.925781 
	C720.506226,661.156921 722.883606,664.452942 725.681030,668.214355 
	C726.404114,668.800598 726.745544,668.892212 727.087036,668.983765 
	C727.087036,668.983765 727.010681,668.988953 726.956421,669.315857 
	C727.297607,669.752258 727.692993,669.861755 728.088440,669.971252 
	C728.088440,669.971252 728.016357,669.989319 727.828125,670.282288 
	C728.789856,671.712158 729.939758,672.848999 731.089661,673.985901 
	C731.089661,673.985901 731.017883,673.988647 730.863281,674.303955 
	C731.833618,675.733032 732.958618,676.846802 734.083557,677.960632 
	C734.083557,677.960632 734.013794,677.984131 733.889771,678.306458 
	C734.206238,678.748657 734.646667,678.868530 735.087158,678.988403 
	C735.087158,678.988342 735.007935,678.990234 734.957764,679.292236 
	C735.301575,679.727051 735.695557,679.859802 736.089539,679.992615 
	C736.089539,679.992615 736.008301,679.993652 735.947021,680.321045 
	C736.286499,680.755859 736.687317,680.863281 737.088135,680.970703 
	C737.088135,680.970764 737.016052,680.989258 736.823181,681.289978 
	C737.781433,682.713806 738.932556,683.836853 740.083679,684.959961 
	C740.083679,684.959961 740.013916,684.983276 739.884827,685.356995 
	C740.197693,685.804321 740.639709,685.877869 741.081665,685.951416 
	C741.081665,685.951477 741.000000,686.000000 740.689209,686.196411 
	C741.281921,687.602844 742.185364,688.812866 743.088806,690.022949 
	C743.088806,690.022949 742.995544,690.008606 742.950806,690.306519 
	C743.300171,690.732849 743.694214,690.861328 744.088318,690.989746 
	C744.088318,690.989746 744.007446,690.991516 743.964233,691.308594 
	C745.973694,693.734985 748.026428,695.844360 750.079163,697.953735 
	C750.079163,697.953735 750.010193,697.987000 749.865662,698.306335 
	C750.120789,698.929321 750.520508,699.232971 750.920166,699.536621 
	C750.920166,699.536621 750.997559,699.513489 751.013306,699.892761 
	C751.383850,700.516052 751.738586,700.760132 752.093323,701.004150 
	C752.093323,701.004150 752.012756,700.994568 751.900513,701.306641 
	C753.885864,704.064819 755.983398,706.510986 758.080994,708.957092 
	C758.080994,708.957092 758.012329,708.982544 757.906311,709.332336 
	C758.228943,709.775574 758.657654,709.869080 759.086304,709.962524 
	C759.086304,709.962524 759.015442,709.984558 758.856079,710.361206 
	C759.158386,710.809021 759.620117,710.880066 760.081848,710.951172 
	C760.081848,710.951172 760.000000,711.000000 759.670471,711.223938 
	C760.583435,712.610229 761.825989,713.772583 763.068542,714.934875 
	C763.068542,714.934875 763.002441,714.997559 762.701782,715.233643 
	C763.628235,716.631836 764.855347,717.793945 766.082458,718.956116 
	C766.082458,718.956116 766.012939,718.984131 765.873901,719.358887 
	C766.183899,719.806091 766.632812,719.878601 767.081787,719.951111 
	C767.081787,719.951111 767.000000,720.000000 766.691406,720.225952 
	C766.952942,720.971619 767.523010,721.491455 768.093079,722.011230 
	C768.093079,722.011230 768.011780,721.997498 767.885498,722.304993 
	C769.866882,725.061096 771.974548,727.509766 774.082214,729.958374 
	C774.082214,729.958374 774.013123,729.982544 773.907104,730.322754 
	C774.230103,730.764771 774.659119,730.866638 775.088135,730.968506 
	C775.088135,730.968506 775.017029,730.982910 774.889587,731.340088 
	C775.203186,731.784668 775.644226,731.872131 776.085205,731.959595 
	C776.085205,731.959595 776.005920,731.999939 775.720154,732.240112 
	C777.308228,734.294617 779.182068,736.109009 781.055908,737.923401 
	C781.055908,737.923401 781.017517,737.983154 780.677124,738.222168 
	C781.252747,739.294434 782.168640,740.127563 783.084534,740.960693 
	C783.084534,740.960754 783.008850,740.996948 782.746887,741.265625 
	C783.394043,743.194275 784.127686,744.984863 785.247498,746.487793 
	C787.835144,749.960632 790.609924,753.293945 793.275391,757.140747 
	C793.160217,758.203247 793.078491,758.808899 792.651245,759.167053 
	C791.847107,758.967224 791.388611,759.014893 790.930054,759.062622 
	C790.930054,759.062561 790.995972,759.009644 791.140442,758.660034 
	C790.827698,758.219727 790.370422,758.129089 789.913208,758.038452 
	C789.913208,758.038452 789.984375,758.015625 790.134644,757.663086 
	C789.827698,757.219788 789.370422,757.129089 788.913208,757.038452 
	C788.913208,757.038452 788.984253,757.016052 789.132568,756.653442 
	C788.825684,756.208496 788.370544,756.126038 787.915405,756.043640 
	C787.915405,756.043640 787.990723,756.005737 788.236206,755.688354 
	C787.629639,754.933350 786.777466,754.495789 785.925354,754.058228 
	C785.925354,754.058228 785.993896,754.009644 786.160034,753.658447 
	C785.855286,753.217407 785.384460,753.127625 784.913574,753.037842 
	C784.913574,753.037842 784.984436,753.015808 785.136108,752.648254 
	C784.830627,752.202454 784.373535,752.124207 783.916382,752.045898 
	C783.916382,752.045898 783.987793,752.012573 784.165039,751.648376 
	C783.866760,751.204285 783.391113,751.124329 782.915527,751.044434 
	C782.915527,751.044495 782.994934,751.001221 783.286499,750.732971 
	C782.689392,749.651611 781.800781,748.838501 780.912170,748.025391 
	C780.912170,748.025391 780.984009,748.016541 781.077759,747.683594 
	C780.751221,747.243103 780.330994,747.135681 779.910706,747.028259 
	C779.910706,747.028259 779.982483,747.017578 780.097900,746.651123 
	C779.781311,746.205139 779.349243,746.125488 778.917175,746.045837 
	C778.917175,746.045837 778.997559,746.000000 779.305847,745.773071 
	C779.046021,745.026123 778.477905,744.506042 777.909851,743.985901 
	C777.909851,743.985901 778.001038,743.996216 778.045837,743.682068 
	C776.372864,741.935303 774.655151,740.502625 772.937439,739.069946 
	C772.937439,739.069946 772.999451,739.004272 773.170105,738.668640 
	C772.864197,738.231873 772.387695,738.130737 771.911133,738.029663 
	C771.911133,738.029663 771.985168,738.007629 772.199646,737.735962 
	C771.903259,736.983826 771.392456,736.503357 770.881592,736.022888 
	C767.850830,732.454285 764.905090,728.809082 761.772156,725.332520 
	C754.533691,717.300110 747.204529,709.349426 739.651001,701.011658 
	C739.389893,700.657715 739.240295,700.354309 739.240295,700.354309 
	C738.893860,700.155823 738.547424,699.957336 738.131592,699.105225 
	C737.012085,697.643127 735.961914,696.834717 734.911743,696.026245 
	C734.911743,696.026306 734.984253,696.017822 735.059570,695.686829 
	C734.726929,695.246704 734.318970,695.137634 733.911011,695.028503 
	C733.911011,695.028503 733.982727,695.017578 734.088379,694.684448 
	C733.766235,694.243286 733.338440,694.135254 732.910583,694.027283 
	C732.910583,694.027283 732.982483,694.017517 733.088013,693.684448 
	C732.765808,693.243408 732.338196,693.135376 731.910522,693.027283 
	C731.910522,693.027283 731.982300,693.017029 732.092041,692.701599 
	C731.771851,692.260742 731.341980,692.135254 730.912109,692.009827 
	C730.912109,692.009827 730.995056,692.007263 731.018860,691.705322 
	C730.665039,691.274170 730.287476,691.144897 729.909851,691.015564 
	C729.909851,691.015564 729.981445,691.011169 730.133911,690.708740 
	C728.827698,688.939392 727.369019,687.472412 725.910339,686.005432 
	C725.910339,686.005432 725.993042,686.005371 726.044861,685.679565 
	C725.701843,685.245605 725.307068,685.137512 724.912231,685.029419 
	C724.912231,685.029419 724.983398,685.016968 725.097412,684.679688 
	C724.778137,684.237671 724.344788,684.132996 723.911499,684.028320 
	C723.911499,684.028320 723.984558,684.008240 724.191650,683.734985 
	C723.897827,682.972595 723.396851,682.483521 722.895935,681.994446 
	C722.895935,681.994446 722.995117,681.929565 722.796875,681.920898 
	C722.489990,681.465027 722.381348,681.017822 722.272705,680.570618 
	C710.840393,668.320312 699.359009,656.115417 687.997314,643.800049 
	C682.545349,637.890442 677.319702,631.772034 672.188477,625.184570 
	C671.717529,624.170593 671.049622,623.720337 670.139343,623.153015 
	C669.571228,623.034119 669.245422,623.032349 668.919617,623.030579 
	C668.919617,623.030579 668.989868,623.015991 669.038940,622.696167 
	C668.695374,622.258362 668.302795,622.140442 667.910156,622.022461 
	C667.910156,622.022461 667.983154,622.017151 668.069519,621.681763 
	C667.741150,621.240967 667.326477,621.135498 666.911743,621.030090 
	C666.911743,621.030090 666.983032,621.017273 667.098022,620.679871 
	C666.779114,620.237976 666.345215,620.133484 665.911316,620.028992 
	C665.911316,620.028992 665.989136,620.000916 666.231323,619.793579 
	C666.280823,619.149902 666.088196,618.713562 665.895508,618.277161 
z"/>
<path fill="#EDF7FA" opacity="1.000000" stroke="none" 
	d="
M157.960724,505.383972 
	C155.831421,505.907349 153.699097,506.005676 151.374695,506.112885 
	C151.374695,517.399231 151.374695,528.465759 151.629501,540.011963 
	C151.884308,540.491577 151.901123,540.792725 151.901123,540.792725 
	C144.604294,540.335449 137.312302,539.766602 130.009338,539.450439 
	C121.701775,539.090759 113.381172,539.034607 105.072906,538.687134 
	C101.657875,538.544250 100.055702,540.110779 100.044655,543.308167 
	C99.994064,557.950806 100.015030,572.593750 100.052361,587.236511 
	C100.054558,588.098694 100.424919,588.960022 100.661774,589.985535 
	C98.492386,588.166626 97.505615,552.283386 99.162819,539.762268 
	C115.004021,539.762268 130.880768,539.762268 147.181503,539.762268 
	C147.181503,528.317261 147.181503,517.441406 147.181503,506.166443 
	C146.172974,505.981201 144.907272,505.748718 143.641571,505.516235 
	C143.674438,504.941040 143.707291,504.365875 143.740158,503.790710 
	C148.479340,504.180115 153.218521,504.569489 157.960724,505.383972 
z"/>
<path fill="#AEDBE9" opacity="1.000000" stroke="none" 
	d="
M544.551941,622.963379 
	C545.115662,620.300659 546.900269,617.648743 546.911743,614.989258 
	C547.084167,574.899597 547.109375,534.808472 546.903137,494.718994 
	C546.878662,489.976105 548.349548,488.944641 552.797791,488.970032 
	C581.740173,489.135193 610.684082,489.028473 639.627502,489.031799 
	C640.944336,489.031921 642.261108,489.234711 643.807556,489.709137 
	C613.581665,490.043365 583.125793,490.067902 552.670959,489.909576 
	C548.807007,489.889496 547.764771,491.356140 547.946106,494.921692 
	C548.389587,503.642639 548.885925,512.376465 548.846497,521.102722 
	C548.784607,534.824707 548.193115,548.543457 548.025879,562.265991 
	C547.873840,574.746643 547.890137,587.231506 548.031189,599.712341 
	C548.092407,605.131775 548.968018,610.552490 548.849731,615.958984 
	C548.791931,618.604065 549.665344,622.576477 544.551941,622.963379 
z"/>
<path fill="#EDF7FA" opacity="1.000000" stroke="none" 
	d="
M69.058792,426.050079 
	C70.000458,425.359985 70.940575,424.068848 71.884010,424.066437 
	C111.200851,423.965363 150.517990,423.972351 189.835052,424.012085 
	C191.133896,424.013397 192.432251,424.493805 193.582474,425.137970 
	C158.768173,425.137970 123.953766,425.095612 89.139656,425.175995 
	C82.686943,425.190887 76.235374,425.700531 69.379013,426.010071 
	C68.974754,426.038300 69.058800,426.050079 69.058792,426.050079 
z"/>
<path fill="#EDF7FA" opacity="1.000000" stroke="none" 
	d="
M327.680237,494.104370 
	C327.750885,533.721985 327.820251,573.339539 327.894592,612.957153 
	C327.900208,615.951965 327.941162,618.946655 328.042053,622.394714 
	C327.412384,621.433960 326.088593,620.011658 326.107239,618.607178 
	C326.187988,612.528992 326.829224,606.459290 326.950836,600.380249 
	C327.117157,592.066711 327.066040,583.746765 326.986847,575.430786 
	C326.729523,548.411499 326.416870,521.392700 326.698059,494.242096 
	C327.270569,494.110504 327.680237,494.104370 327.680237,494.104370 
z"/>
<path fill="#9F9E9E" opacity="1.000000" stroke="none" 
	d="
M68.592476,427.498596 
	C68.070419,430.396790 67.098869,433.294037 67.092567,436.193359 
	C66.962067,496.172943 66.941620,556.152771 66.890068,616.132568 
	C66.889793,616.446838 66.757332,616.760986 66.354790,618.549194 
	C66.239830,616.007996 66.149330,614.917725 66.147163,613.827271 
	C66.084297,582.171265 66.010788,550.515259 65.980537,518.859253 
	C65.952980,490.022583 65.955078,461.185852 66.020477,432.349274 
	C66.024376,430.628510 66.706123,428.909271 67.627068,427.171204 
	C68.318611,427.268250 68.455544,427.383423 68.592476,427.498596 
z"/>
<path fill="#EDF7FA" opacity="1.000000" stroke="none" 
	d="
M837.020325,551.000000 
	C837.020325,558.498596 837.171997,565.501404 836.976440,572.494507 
	C836.791992,579.088745 838.150818,585.841248 835.343628,592.406372 
	C835.343628,560.166321 835.343628,528.121948 835.343628,496.077515 
	C835.902527,496.064636 836.461426,496.051758 837.020325,496.038879 
	C837.020325,514.192566 837.020325,532.346313 837.020325,551.000000 
z"/>
<path fill="#4F4E4F" opacity="1.000000" stroke="none" 
	d="
M508.838531,462.113007 
	C461.273193,462.052612 413.707886,461.990784 366.142548,461.943512 
	C365.337189,461.942719 364.531647,462.117889 363.006714,462.294067 
	C363.006714,471.284485 363.006714,480.199646 363.010925,489.589935 
	C362.675659,487.691254 362.087036,485.321991 362.043549,482.942810 
	C361.913452,475.827240 361.996765,468.707794 361.996765,461.027100 
	C411.000977,461.027100 459.553253,461.027100 508.513672,461.303986 
	C508.894043,461.758270 508.866272,461.935638 508.838531,462.113007 
z"/>
<path fill="#EDF7FA" opacity="1.000000" stroke="none" 
	d="
M346.406952,622.888794 
	C346.261078,579.027771 346.475861,534.970337 346.600647,490.451477 
	C346.767822,489.715698 347.024994,489.441254 347.557312,489.091461 
	C347.895081,513.787354 347.974884,538.558594 348.014679,563.329773 
	C348.043823,581.454346 348.053009,599.579285 347.965881,617.703491 
	C347.957886,619.368347 347.185211,621.029480 346.406952,622.888794 
z"/>
<path fill="#EDF7FA" opacity="1.000000" stroke="none" 
	d="
M884.999329,512.836060 
	C884.181946,512.678345 883.087769,512.104004 882.593506,512.432434 
	C879.993042,514.160461 879.191528,523.372620 881.179626,525.857361 
	C881.960144,526.832825 882.939331,528.065979 882.943481,529.185120 
	C883.041992,555.946289 883.020081,582.707886 882.314819,609.475586 
	C882.314819,577.003845 882.314819,544.532166 882.314819,512.309204 
	C882.879944,512.548096 883.678345,512.885620 884.742310,513.060547 
	C885.007996,512.898071 884.999329,512.836060 884.999329,512.836060 
z"/>
<path fill="#AEDBE9" opacity="1.000000" stroke="none" 
	d="
M522.605103,461.127502 
	C522.993042,511.408356 522.984680,561.892822 522.994934,612.377258 
	C522.995422,614.704956 523.162964,617.032715 523.163574,619.848816 
	C522.716675,619.178894 522.047058,618.020874 522.045898,616.862183 
	C521.992859,565.676025 521.997925,514.489746 522.006592,463.303497 
	C522.006714,462.646027 522.140808,461.988586 522.605103,461.127502 
z"/>
<path fill="#9F9E9E" opacity="1.000000" stroke="none" 
	d="
M122.000015,458.960022 
	C145.433731,458.959595 168.367447,458.959595 191.301178,458.959595 
	C191.311859,459.315063 191.322556,459.670563 191.333237,460.026031 
	C189.741531,460.026031 188.149841,460.025787 186.558136,460.026001 
	C159.435989,460.029968 132.313568,460.096069 105.191963,459.975647 
	C100.777321,459.956024 99.134247,460.452515 99.643478,465.886749 
	C100.392555,473.880524 99.113899,482.046875 99.021294,490.143372 
	C98.962234,495.307434 99.485519,500.478210 98.719025,505.692871 
	C98.719025,490.397156 98.719025,475.101410 98.719025,458.960419 
	C106.021523,458.960419 113.760780,458.960419 122.000015,458.960022 
z"/>
<path fill="#5DBAD1" opacity="1.000000" stroke="none" 
	d="
M347.901245,486.511230 
	C347.570251,482.048767 347.229065,477.123505 347.052551,472.192352 
	C346.928497,468.726410 347.028595,465.252441 347.028595,461.052460 
	C305.935242,461.052460 265.363037,461.052460 224.311066,461.020203 
	C225.010452,460.648193 226.189331,460.012726 227.368835,460.011597 
	C266.953308,459.973663 306.537842,459.995514 346.122345,460.017303 
	C346.592987,460.017578 347.063568,460.130432 347.961426,460.245453 
	C347.961426,468.867096 347.961426,477.456512 347.901245,486.511230 
z"/>
<path fill="#4F4E4F" opacity="1.000000" stroke="none" 
	d="
M1007.122192,599.997437 
	C1007.120911,556.597168 1007.120911,513.696411 1007.120911,470.795593 
	C1007.339417,470.796112 1007.557983,470.796600 1007.776489,470.797119 
	C1007.776489,519.221863 1007.776489,567.646606 1007.776489,616.071411 
	C1007.558777,616.076233 1007.341125,616.081116 1007.123413,616.085999 
	C1007.123413,610.889587 1007.123413,605.693237 1007.122192,599.997437 
z"/>
<path fill="#EDF7FA" opacity="1.000000" stroke="none" 
	d="
M800.092957,761.909851 
	C801.779663,763.482361 803.700256,764.869995 805.113586,766.658508 
	C812.025696,775.406311 818.866638,784.212952 825.561829,793.127075 
	C826.619812,794.535767 826.803955,796.600830 826.893494,798.741577 
	C823.371033,797.729736 819.682800,797.251282 819.175293,792.504883 
	C820.074707,792.687988 820.782959,793.119873 821.491211,793.551758 
	C821.717957,793.254944 821.944763,792.958130 822.171509,792.661255 
	C820.786804,791.448608 819.402161,790.235901 818.008789,789.011597 
	C818.000000,788.999878 817.982971,788.976074 818.010193,788.626343 
	C816.196838,785.830139 814.356323,783.383789 812.403809,780.615112 
	C811.523254,779.519165 810.754578,778.745483 809.993835,777.984253 
	C810.001831,777.996704 810.023865,778.016418 810.018677,777.663757 
	C809.051697,775.985901 808.025635,774.702087 807.140198,773.327698 
	C804.723572,769.576660 802.366272,765.787415 800.012390,761.987488 
	C800.039307,761.961670 800.092957,761.909851 800.092957,761.909851 
z"/>
<path fill="#5DBAD1" opacity="1.000000" stroke="none" 
	d="
M654.052795,460.960663 
	C610.663330,461.001007 567.273926,461.041351 523.415527,461.022766 
	C524.266113,460.623413 525.585266,459.986816 526.905151,459.985565 
	C568.955566,459.945526 611.006104,459.967041 653.532227,460.268494 
	C654.007812,460.557709 654.052795,460.960663 654.052795,460.960663 
z"/>
<path fill="#EDF7FA" opacity="1.000000" stroke="none" 
	d="
M450.370117,618.366455 
	C450.208160,614.592651 450.684387,610.642700 450.691040,606.692017 
	C450.752930,570.073669 450.713776,533.455078 450.802521,496.836823 
	C450.806610,495.149139 451.747162,493.463715 452.719604,491.867432 
	C452.798553,493.995331 452.073700,496.032410 452.070099,498.070770 
	C452.002502,536.333313 452.036835,574.596069 451.968201,612.858643 
	C451.964996,614.636475 451.200470,616.412903 450.370117,618.366455 
z"/>
<path fill="#9F9E9E" opacity="1.000000" stroke="none" 
	d="
M417.970642,491.845673 
	C418.282318,493.549744 418.867767,495.254211 418.865448,496.957855 
	C418.813812,535.257690 418.695862,573.557495 418.603241,611.857300 
	C418.600830,612.852173 418.742554,613.847351 418.858124,615.293640 
	C418.643005,611.858032 418.172058,607.971680 418.163940,604.084351 
	C418.087372,567.382446 418.089752,530.680420 418.046783,493.215881 
	C418.006378,492.250824 417.988525,492.048248 417.970642,491.845673 
z"/>
<path fill="#4F4E4F" opacity="1.000000" stroke="none" 
	d="
M74.509514,623.009033 
	C73.265831,622.916992 72.460449,622.825256 71.655067,622.733459 
	C71.662086,622.576538 71.669098,622.419556 71.676117,622.262573 
	C111.540512,622.262573 151.404907,622.262573 191.269302,622.262573 
	C191.269943,622.511475 191.270599,622.760437 191.271240,623.009338 
	C152.496765,623.009338 113.722298,623.009338 74.509514,623.009033 
z"/>
<path fill="#EDF7FA" opacity="1.000000" stroke="none" 
	d="
M975.564575,468.161682 
	C975.564575,486.685669 975.564575,505.209656 975.564575,523.733643 
	C975.098145,523.738281 974.631653,523.742920 974.165222,523.747620 
	C974.165222,505.274750 974.165222,486.801880 974.685181,468.316711 
	C975.205139,468.304413 975.564575,468.161682 975.564575,468.161682 
z"/>
<path fill="#AEDBE9" opacity="1.000000" stroke="none" 
	d="
M327.791077,493.701843 
	C327.680237,494.104370 327.270569,494.110504 327.082153,494.030151 
	C326.831879,490.537476 324.899689,489.923401 321.815918,489.935364 
	C294.711121,490.040497 267.605743,489.994354 239.985809,489.980286 
	C240.857010,489.648315 242.242645,489.052307 243.628937,489.050751 
	C271.350372,489.019836 299.071899,489.057465 327.235748,489.121765 
	C327.752716,490.541260 327.827301,491.920288 327.791077,493.701843 
z"/>
<path fill="#4F4E4F" opacity="1.000000" stroke="none" 
	d="
M850.219849,555.157349 
	C850.132690,544.507690 849.983154,533.858154 849.971741,523.208435 
	C849.949768,502.723511 850.005981,482.238525 850.320190,461.281128 
	C850.610535,460.808716 851.005615,461.009674 851.005615,461.009674 
	C851.005371,492.081085 851.005127,523.152527 850.752930,554.702637 
	C850.500916,555.181274 850.219849,555.157349 850.219849,555.157349 
z"/>
<path fill="#9F9E9E" opacity="1.000000" stroke="none" 
	d="
M755.839417,491.028442 
	C768.201843,491.080627 780.082397,491.080627 791.962891,491.080627 
	C791.950195,491.540375 791.937500,492.000153 791.924805,492.459900 
	C772.444214,491.820312 752.963684,491.180756 733.483093,490.541168 
	C733.477112,490.686188 733.471130,490.831238 733.465149,490.976288 
	C740.762573,490.976288 748.060059,490.976288 755.839417,491.028442 
z"/>
<path fill="#EDF7FA" opacity="1.000000" stroke="none" 
	d="
M851.366211,460.885925 
	C851.005615,461.009674 850.610535,460.808716 850.388916,460.804321 
	C851.541077,459.861206 852.825256,458.312134 854.304871,458.095123 
	C859.289185,457.364014 864.140320,457.609344 866.229370,462.559296 
	C864.952515,462.107147 863.015076,461.421112 860.567627,460.346649 
	C859.534973,460.241150 859.012329,460.524078 858.489685,460.807007 
	C859.064819,462.679932 859.639954,464.552856 860.219116,466.438904 
	C857.153076,464.389374 854.439941,462.575775 851.366211,460.885925 
z"/>
<path fill="#9F9E9E" opacity="1.000000" stroke="none" 
	d="
M806.005493,513.138794 
	C806.003784,535.042114 806.003784,556.467957 806.003784,577.893738 
	C805.692688,577.894409 805.381653,577.895081 805.070557,577.895691 
	C805.070557,553.734375 805.070557,529.573059 805.070557,505.411743 
	C805.382751,505.408936 805.694946,505.406097 806.007141,505.403259 
	C806.007141,507.822601 806.007141,510.241913 806.005493,513.138794 
z"/>
<path fill="#4F4E4F" opacity="1.000000" stroke="none" 
	d="
M756.000000,621.941528 
	C770.767944,621.941406 785.035889,621.941406 799.303772,621.941406 
	C799.303467,622.208740 799.303101,622.476074 799.302734,622.743408 
	C774.434937,622.743408 749.567200,622.743408 724.699402,622.743408 
	C724.693420,622.476135 724.687439,622.208923 724.681458,621.941650 
	C734.954285,621.941650 745.227173,621.941650 756.000000,621.941528 
z"/>
<path fill="#9F9E9E" opacity="1.000000" stroke="none" 
	d="
M975.117798,558.291138 
	C975.117065,547.188904 975.117065,536.547913 975.117065,525.906982 
	C975.203308,525.908081 975.289490,525.909119 975.375732,525.910217 
	C975.375732,541.898865 975.375732,557.887512 975.375732,573.876221 
	C975.290039,573.870178 975.204285,573.864136 975.118591,573.858093 
	C975.118591,568.822876 975.118591,563.787720 975.117798,558.291138 
z"/>
<path fill="#EDF7FA" opacity="1.000000" stroke="none" 
	d="
M639.869141,526.547729 
	C616.313843,527.014343 592.548828,527.094238 568.310547,527.091797 
	C568.667542,526.670227 569.497864,526.034973 570.328125,526.035034 
	C593.438538,526.037598 616.549011,526.104675 639.869141,526.547729 
z"/>
<path fill="#EDF7FA" opacity="1.000000" stroke="none" 
	d="
M793.308838,756.683899 
	C790.609924,753.293945 787.835144,749.960632 785.247498,746.487793 
	C784.127686,744.984863 783.394043,743.194275 782.773682,741.233398 
	C787.040833,745.212402 791.129700,749.396851 794.951782,753.812195 
	C796.890625,756.052063 798.348328,758.708313 800.058228,761.543091 
	C800.092957,761.909851 800.039307,761.961670 799.670044,762.104614 
	C797.303467,760.393066 795.306152,758.538513 793.308838,756.683899 
z"/>
<path fill="#AEDBE9" opacity="1.000000" stroke="none" 
	d="
M672.592407,529.819336 
	C672.504822,516.285156 672.858093,502.557953 672.935181,488.829193 
	C672.956238,485.070801 672.148804,481.307709 671.819336,477.098816 
	C672.634583,477.998291 673.943665,479.333313 673.972351,480.695282 
	C674.143555,488.833191 674.002686,496.977264 674.000061,505.119263 
	C673.997864,511.942352 674.102722,518.766235 674.013000,525.587891 
	C673.995300,526.938416 673.307861,528.280090 672.592407,529.819336 
z"/>
<path fill="#9F9E9E" opacity="1.000000" stroke="none" 
	d="
M784.881592,592.030762 
	C765.766846,592.031189 747.132935,592.031189 728.499023,592.031189 
	C728.500244,591.768250 728.501404,591.505371 728.502625,591.242432 
	C749.935059,591.242432 771.367554,591.242432 792.799988,591.242432 
	C792.800049,591.505066 792.800049,591.767761 792.800049,592.030396 
	C790.320862,592.030396 787.841675,592.030396 784.881592,592.030762 
z"/>
<path fill="#4F4E4F" opacity="1.000000" stroke="none" 
	d="
M454.023376,492.035034 
	C455.049744,491.683655 456.590790,491.031097 458.134064,491.025726 
	C474.153961,490.969879 490.174225,491.018311 506.655029,491.382355 
	C507.121735,492.092407 507.127808,492.457855 507.133881,492.823334 
	C489.602264,492.560333 472.070679,492.297333 454.023376,492.035034 
z"/>
<path fill="#9F9E9E" opacity="1.000000" stroke="none" 
	d="
M850.206238,555.614990 
	C850.219849,555.157349 850.500916,555.181274 850.641479,555.169800 
	C850.781982,573.203369 850.781982,591.248352 850.781982,609.293396 
	C850.585510,609.293274 850.389099,609.293152 850.192627,609.293030 
	C850.192627,591.552917 850.192627,573.812805 850.206238,555.614990 
z"/>
<path fill="#EDF7FA" opacity="1.000000" stroke="none" 
	d="
M194.413544,620.591614 
	C194.518417,611.763733 194.857529,603.293701 195.212463,594.824341 
	C195.224899,594.527954 195.395309,594.238220 195.846207,592.873779 
	C196.427643,594.631409 196.969879,595.522705 196.979752,596.419800 
	C197.052704,603.047424 197.167435,609.682007 196.911713,616.300537 
	C196.850800,617.876953 195.440155,619.401306 194.413544,620.591614 
z"/>
<path fill="#9F9E9E" opacity="1.000000" stroke="none" 
	d="
M160.000137,588.923950 
	C170.909378,588.923645 181.318665,588.923645 191.727951,588.923645 
	C191.724701,589.229614 191.721451,589.535645 191.718201,589.841614 
	C173.924057,589.841614 156.129898,589.841614 138.335754,589.841614 
	C138.329483,589.535828 138.323227,589.230042 138.316956,588.924255 
	C145.378036,588.924255 152.439102,588.924255 160.000137,588.923950 
z"/>
<path fill="#4F4E4F" opacity="1.000000" stroke="none" 
	d="
M417.687714,491.542114 
	C417.988525,492.048248 418.006378,492.250824 417.979065,492.755035 
	C415.510284,492.713440 413.088196,492.086517 410.662811,492.073578 
	C396.415894,491.997650 382.168213,492.064972 367.452026,492.044373 
	C367.490021,491.660217 367.997406,491.013824 368.503357,491.014923 
	C384.803925,491.050903 401.104340,491.149414 417.687714,491.542114 
z"/>
<path fill="#AEDBE9" opacity="1.000000" stroke="none" 
	d="
M152.371185,540.881836 
	C151.901123,540.792725 151.884308,540.491577 151.904312,540.342163 
	C167.353043,540.107788 182.781769,540.022827 198.689789,539.970459 
	C197.660583,540.334290 196.153366,540.945801 194.643326,540.952881 
	C180.709564,541.018372 166.775330,540.979431 152.371185,540.881836 
z"/>
<path fill="#AEDBE9" opacity="1.000000" stroke="none" 
	d="
M715.096558,536.882751 
	C715.096558,525.474731 715.096558,514.066711 715.096558,502.658691 
	C715.403320,502.663300 715.710022,502.667877 716.016785,502.672485 
	C716.016785,513.768982 716.016785,524.865417 715.752808,536.453003 
	C715.488770,536.944092 715.096558,536.882751 715.096558,536.882751 
z"/>
<path fill="#9F9E9E" opacity="1.000000" stroke="none" 
	d="
M715.017578,537.356445 
	C715.096558,536.882751 715.488770,536.944092 715.684448,536.909424 
	C715.880127,551.336853 715.880127,565.798950 715.880127,580.261047 
	C715.566284,580.263733 715.252380,580.266418 714.938538,580.269165 
	C714.938538,566.122803 714.938538,551.976501 715.017578,537.356445 
z"/>
<path fill="#9F9E9E" opacity="1.000000" stroke="none" 
	d="
M507.479126,492.702026 
	C507.127808,492.457855 507.121735,492.092407 507.127747,491.453033 
	C507.751953,489.711945 508.861267,488.255524 508.893250,486.775787 
	C509.064301,478.863129 508.966400,470.944641 508.899994,462.570587 
	C508.866272,461.935638 508.894043,461.758270 508.985138,461.319122 
	C509.373016,462.188812 509.926514,463.308502 509.985168,464.453552 
	C510.387878,472.312256 510.862701,480.176147 510.866425,488.038605 
	C510.867157,489.552185 508.889404,491.066650 507.479126,492.702026 
z"/>
<path fill="#AEDBE9" opacity="1.000000" stroke="none" 
	d="
M806.513123,462.465118 
	C812.851074,461.273010 817.691467,463.283142 822.177917,467.726227 
	C815.651917,465.503204 809.580078,463.434875 803.508240,461.366547 
	C803.413818,461.941376 803.319397,462.516205 803.224976,463.091034 
	C804.191895,462.938568 805.158875,462.786102 806.513123,462.465118 
z"/>
<path fill="#4F4E4F" opacity="1.000000" stroke="none" 
	d="
M113.041618,590.067505 
	C120.821976,590.068665 128.109619,590.068665 135.397263,590.068665 
	C135.397614,590.264038 135.397964,590.459412 135.398300,590.654785 
	C124.571465,590.654785 113.744621,590.654785 102.917778,590.654785 
	C102.913269,590.458618 102.908768,590.262451 102.904259,590.066284 
	C106.119141,590.066284 109.334023,590.066284 113.041618,590.067505 
z"/>
<path fill="#9F9E9E" opacity="1.000000" stroke="none" 
	d="
M683.998840,532.001038 
	C683.998840,520.879333 683.998840,509.757568 683.998840,498.635834 
	C684.343506,498.633057 684.688171,498.630249 685.032837,498.627472 
	C685.032837,509.441437 685.032837,520.255371 684.767578,531.648926 
	C684.334473,532.152649 684.166626,532.076843 683.998840,532.001038 
z"/>
<path fill="#EDF7FA" opacity="1.000000" stroke="none" 
	d="
M684.317017,555.086182 
	C684.315674,563.958496 684.315674,572.341858 684.315674,580.725159 
	C683.982361,580.721252 683.648987,580.717285 683.315674,580.713379 
	C683.315674,569.942627 683.315674,559.171875 683.315674,548.401123 
	C683.649902,548.376892 683.984131,548.352722 684.318359,548.328491 
	C684.318359,550.418091 684.318359,552.507629 684.317017,555.086182 
z"/>
<path fill="#EDF7FA" opacity="1.000000" stroke="none" 
	d="
M654.399048,461.062622 
	C654.052795,460.960663 654.007812,460.557709 653.992126,460.355621 
	C659.388916,461.053223 665.447876,460.667358 668.053284,467.592133 
	C663.639832,465.700409 659.192627,463.432495 654.399048,461.062622 
z"/>
<path fill="#9F9E9E" opacity="1.000000" stroke="none" 
	d="
M422.039856,622.411621 
	C429.667084,622.141541 437.368164,622.283386 445.438995,622.256226 
	C445.758209,622.693604 445.688416,623.832458 445.659851,623.831421 
	C437.809296,623.547485 429.961548,623.184631 422.039856,622.411621 
z"/>
<path fill="#4F4E4F" opacity="1.000000" stroke="none" 
	d="
M740.503967,461.115662 
	C741.909058,461.115845 742.882568,461.115845 743.856079,461.115845 
	C743.857056,461.315369 743.858032,461.514893 743.859009,461.714417 
	C735.585815,461.714417 727.312622,461.714417 719.039429,461.714417 
	C719.034058,461.514771 719.028625,461.315125 719.023254,461.115479 
	C726.039612,461.115479 733.056030,461.115479 740.503967,461.115662 
z"/>
<path fill="#EDF7FA" opacity="1.000000" stroke="none" 
	d="
M749.380981,460.020752 
	C757.068665,460.024292 764.296997,460.024292 771.525330,460.024292 
	C771.523621,460.289124 771.521912,460.553925 771.520203,460.818756 
	C763.233337,460.818756 754.946472,460.818756 746.659668,460.818756 
	C746.629395,460.689209 746.599121,460.559631 746.568848,460.430084 
	C747.353088,460.292450 748.137390,460.154816 749.380981,460.020752 
z"/>
<path fill="#4F4E4F" opacity="1.000000" stroke="none" 
	d="
M781.136108,461.924622 
	C778.514587,461.923187 776.367920,461.923187 774.221252,461.923187 
	C774.219666,461.724884 774.218018,461.526581 774.216431,461.328278 
	C781.463501,461.328278 788.710571,461.328278 795.957642,461.328278 
	C795.966858,461.527557 795.976135,461.726807 795.985352,461.926086 
	C791.193909,461.926086 786.402405,461.926086 781.136108,461.924622 
z"/>
<path fill="#EDF7FA" opacity="1.000000" stroke="none" 
	d="
M817.984131,791.229980 
	C815.385925,788.404724 812.787659,785.579529 810.074768,782.397583 
	C809.960144,782.040771 810.008240,781.991516 810.345703,781.864441 
	C811.114441,781.943665 811.545715,782.149963 812.114990,782.642334 
	C814.162964,784.944336 816.072937,786.960205 817.982971,788.976074 
	C817.982971,788.976074 818.000000,788.999878 817.977356,789.378296 
	C817.964539,790.247864 817.974365,790.738892 817.984131,791.229980 
z"/>
<path fill="#9F9E9E" opacity="1.000000" stroke="none" 
	d="
M975.753784,467.846252 
	C975.564575,468.161682 975.205139,468.304413 975.093262,468.146667 
	C974.897461,463.371216 975.420044,462.758728 981.323608,461.048920 
	C979.330688,463.449768 977.636841,465.490326 975.753784,467.846252 
z"/>
<path fill="#EDF7FA" opacity="1.000000" stroke="none" 
	d="
M758.050781,708.592407 
	C755.983398,706.510986 753.885864,704.064819 751.907104,701.266602 
	C754.024109,703.352295 756.022339,705.790039 758.050781,708.592407 
z"/>
<path fill="#EDF7FA" opacity="1.000000" stroke="none" 
	d="
M750.049561,697.592224 
	C748.026428,695.844360 745.973694,693.734985 743.964844,691.268188 
	C746.012451,693.017395 748.016235,695.124023 750.049561,697.592224 
z"/>
<path fill="#EDF7FA" opacity="1.000000" stroke="none" 
	d="
M781.038696,737.555786 
	C779.182068,736.109009 777.308228,734.294617 775.752563,732.209656 
	C777.721008,733.688782 779.371277,735.438477 781.038696,737.555786 
z"/>
<path fill="#EDF7FA" opacity="1.000000" stroke="none" 
	d="
M774.051636,729.591980 
	C771.974548,727.509766 769.866882,725.061096 767.893799,722.264648 
	C770.025940,724.353027 772.023499,726.789307 774.051636,729.591980 
z"/>
<path fill="#EDF7FA" opacity="1.000000" stroke="none" 
	d="
M809.936035,782.065430 
	C808.267517,780.328979 806.622986,778.567932 804.968567,776.423096 
	C804.958679,776.039368 805.011902,775.989502 805.367188,775.903076 
	C807.156250,776.549866 808.590027,777.283142 810.023865,778.016418 
	C810.023865,778.016418 810.001831,777.996704 809.843018,778.377075 
	C809.792175,779.835449 809.900208,780.913452 810.008240,781.991516 
	C810.008240,781.991516 809.960144,782.040771 809.936035,782.065430 
z"/>
<path fill="#4F4E4F" opacity="1.000000" stroke="none" 
	d="
M683.923950,532.462646 
	C684.166626,532.076843 684.334473,532.152649 684.755371,532.117920 
	C685.008545,536.864563 685.008545,541.721802 685.008545,546.579041 
	C684.622009,546.576538 684.235535,546.574097 683.848999,546.571594 
	C683.848999,542.022461 683.848999,537.473389 683.923950,532.462646 
z"/>
<path fill="#EDF7FA" opacity="1.000000" stroke="none" 
	d="
M801.921509,772.076416 
	C800.274170,770.316650 798.626831,768.556885 796.969360,766.417969 
	C796.959290,766.038818 796.994202,766.006104 797.339600,765.989746 
	C799.122131,767.983398 800.559143,769.993408 801.977600,772.021729 
	C801.958984,772.040039 801.921509,772.076416 801.921509,772.076416 
z"/>
<path fill="#EDF7FA" opacity="1.000000" stroke="none" 
	d="
M670.737183,475.140198 
	C669.700378,473.200653 668.671082,470.897583 667.841797,468.256226 
	C668.942810,470.204224 669.843811,472.490479 670.737183,475.140198 
z"/>
<path fill="#EDF7FA" opacity="1.000000" stroke="none" 
	d="
M772.958496,739.422363 
	C774.655151,740.502625 776.372864,741.935303 778.041138,743.727661 
	C776.320984,742.649902 774.650330,741.212280 772.958496,739.422363 
z"/>
<path fill="#EDF7FA" opacity="1.000000" stroke="none" 
	d="
M725.954407,686.370728 
	C727.369019,687.472412 728.827698,688.939392 730.125977,690.743713 
	C728.643127,689.632751 727.320801,688.184387 725.954407,686.370728 
z"/>
<path fill="#EDF7FA" opacity="1.000000" stroke="none" 
	d="
M731.047913,673.610962 
	C729.939758,672.848999 728.789856,671.712158 727.843445,670.248413 
	C729.033325,671.026428 730.019775,672.131226 731.047913,673.610962 
z"/>
<path fill="#EDF7FA" opacity="1.000000" stroke="none" 
	d="
M665.578552,618.102905 
	C666.088196,618.713562 666.280823,619.149902 666.203125,619.823853 
	C664.614868,618.962952 663.296875,617.864441 661.955566,616.414246 
	C663.041931,616.684509 664.151794,617.306519 665.578552,618.102905 
z"/>
<path fill="#AEDBE9" opacity="1.000000" stroke="none" 
	d="
M818.013062,791.446777 
	C817.974365,790.738892 817.964539,790.247864 817.986084,789.390015 
	C819.402161,790.235901 820.786804,791.448608 822.171509,792.661255 
	C821.944763,792.958130 821.717957,793.254944 821.491211,793.551758 
	C820.782959,793.119873 820.074707,792.687988 819.078613,792.133911 
	C818.459656,792.070801 818.210022,791.954773 818.013062,791.446777 
z"/>
<path fill="#AEDBE9" opacity="1.000000" stroke="none" 
	d="
M663.839600,547.014038 
	C664.445251,545.528442 665.432190,544.063721 666.740967,542.835327 
	C666.115479,544.392822 665.168213,545.713867 663.839600,547.014038 
z"/>
<path fill="#EDF7FA" opacity="1.000000" stroke="none" 
	d="
M740.053223,684.620850 
	C738.932556,683.836853 737.781433,682.713806 736.838623,681.256104 
	C738.038818,682.041565 739.030762,683.161621 740.053223,684.620850 
z"/>
<path fill="#EDF7FA" opacity="1.000000" stroke="none" 
	d="
M734.052307,677.620972 
	C732.958618,676.846802 731.833618,675.733032 730.870728,674.268799 
	C732.028809,675.039368 733.024902,676.160339 734.052307,677.620972 
z"/>
<path fill="#EDF7FA" opacity="1.000000" stroke="none" 
	d="
M766.052124,718.618530 
	C764.855347,717.793945 763.628235,716.631836 762.737915,715.205811 
	C764.057068,716.054932 765.039368,717.167969 766.052124,718.618530 
z"/>
<path fill="#4F4E4F" opacity="1.000000" stroke="none" 
	d="
M684.020752,583.716919 
	C684.510742,585.371765 684.958069,587.410400 685.405334,589.449097 
	C684.929565,589.486938 684.453796,589.524780 683.978027,589.562683 
	C683.978027,587.742065 683.978027,585.921448 684.020752,583.716919 
z"/>
<path fill="#EDF7FA" opacity="1.000000" stroke="none" 
	d="
M763.045044,714.598999 
	C761.825989,713.772583 760.583435,712.610229 759.710205,711.197632 
	C761.060120,712.052612 762.040833,713.157898 763.045044,714.598999 
z"/>
<path fill="#EDF7FA" opacity="1.000000" stroke="none" 
	d="
M804.932251,776.064514 
	C803.930298,774.974792 802.954895,773.859924 801.950439,772.410767 
	C801.921509,772.076416 801.958984,772.040039 802.337585,772.000244 
	C803.481445,773.303467 804.246704,774.646484 805.011902,775.989502 
	C805.011902,775.989502 804.958679,776.039368 804.932251,776.064514 
z"/>
<path fill="#EDF7FA" opacity="1.000000" stroke="none" 
	d="
M791.031067,759.376831 
	C791.388611,759.014893 791.847107,758.967224 792.766479,759.469971 
	C793.488892,761.010437 793.750488,762.000488 793.986511,763.015991 
	C793.960876,763.041382 793.912476,763.094910 793.912476,763.094910 
	C792.985657,761.960327 792.058838,760.825745 791.031067,759.376831 
z"/>
<path fill="#EDF7FA" opacity="1.000000" stroke="none" 
	d="
M734.947021,696.386902 
	C735.961914,696.834717 737.012085,697.643127 738.041016,698.816589 
	C737.007324,698.370300 735.994873,697.558960 734.947021,696.386902 
z"/>
<path fill="#EDF7FA" opacity="1.000000" stroke="none" 
	d="
M743.034119,689.665405 
	C742.185364,688.812866 741.281921,687.602844 740.729614,686.171265 
	C741.713684,687.069092 742.346558,688.188477 743.034119,689.665405 
z"/>
<path fill="#EDF7FA" opacity="1.000000" stroke="none" 
	d="
M658.060181,611.825806 
	C659.163940,612.441833 660.244324,613.422729 661.142761,614.743652 
	C659.986145,614.119446 659.011475,613.155090 658.060181,611.825806 
z"/>
<path fill="#EDF7FA" opacity="1.000000" stroke="none" 
	d="
M780.953064,748.356750 
	C781.800781,748.838501 782.689392,749.651611 783.253784,750.764160 
	C782.284363,750.271851 781.639160,749.479980 780.953064,748.356750 
z"/>
<path fill="#EDF7FA" opacity="1.000000" stroke="none" 
	d="
M783.052551,740.630432 
	C782.168640,740.127563 781.252747,739.294434 780.707520,738.203857 
	C781.725647,738.731018 782.373108,739.515625 783.052551,740.630432 
z"/>
<path fill="#AEDBE9" opacity="1.000000" stroke="none" 
	d="
M660.402344,549.074463 
	C660.942688,548.259521 661.846497,547.438599 663.139526,546.793701 
	C662.607727,547.669312 661.686768,548.368896 660.402344,549.074463 
z"/>
<path fill="#0295BE" opacity="1.000000" stroke="none" 
	d="
M670.381653,623.270142 
	C671.049622,623.720337 671.717529,624.170593 672.146484,624.833618 
	C671.663330,625.024353 671.419312,625.002380 670.713135,624.631836 
	C670.294556,623.945557 670.338135,623.607849 670.381653,623.270142 
z"/>
<path fill="#AEDBE9" opacity="1.000000" stroke="none" 
	d="
M656.705200,549.858276 
	C657.412842,549.398254 658.469116,548.992371 659.789124,548.830261 
	C659.053162,549.353455 658.053528,549.632935 656.705200,549.858276 
z"/>
<path fill="#EDF7FA" opacity="1.000000" stroke="none" 
	d="
M670.139343,623.153015 
	C670.338135,623.607849 670.294556,623.945557 670.365845,624.511597 
	C669.999939,624.327576 669.519226,623.915344 668.979065,623.266846 
	C669.245422,623.032349 669.571228,623.034119 670.139343,623.153015 
z"/>
<path fill="#4F4E4F" opacity="1.000000" stroke="none" 
	d="
M685.890625,592.158081 
	C685.819031,592.729553 685.706360,593.022827 685.593750,593.316101 
	C685.473511,592.803833 685.339539,592.293884 685.248962,591.776428 
	C685.236328,591.704041 685.436890,591.594238 685.538818,591.501709 
	C685.642395,591.627686 685.745972,591.753723 685.890625,592.158081 
z"/>
<path fill="#EDF7FA" opacity="1.000000" stroke="none" 
	d="
M786.007080,754.347412 
	C786.777466,754.495789 787.629639,754.933350 788.211548,755.722473 
	C787.323792,755.594910 786.706299,755.115784 786.007080,754.347412 
z"/>
<path fill="#EDF7FA" opacity="1.000000" stroke="none" 
	d="
M768.046753,721.690308 
	C767.523010,721.491455 766.952942,720.971619 766.730164,720.198242 
	C767.385071,720.419556 767.692749,720.894409 768.046753,721.690308 
z"/>
<path fill="#EDF7FA" opacity="1.000000" stroke="none" 
	d="
M777.953979,744.307617 
	C778.477905,744.506042 779.046021,745.026123 779.268982,745.800903 
	C778.615234,745.580200 778.306641,745.104736 777.953979,744.307617 
z"/>
<path fill="#AEDBE9" opacity="1.000000" stroke="none" 
	d="
M668.399658,541.975037 
	C668.151306,541.396362 668.222595,540.741821 668.689087,540.049316 
	C668.962708,540.640686 668.841003,541.269897 668.399658,541.975037 
z"/>
<path fill="#EDF7FA" opacity="1.000000" stroke="none" 
	d="
M885.037109,512.909790 
	C885.071472,513.161316 885.076782,513.401001 885.082031,513.640747 
	C885.200073,513.634644 885.318115,513.628479 885.436157,513.622314 
	C885.409180,513.381165 885.382141,513.140076 885.177246,512.867493 
	C884.999329,512.836060 885.007996,512.898071 885.037109,512.909790 
z"/>
<path fill="#AEDBE9" opacity="1.000000" stroke="none" 
	d="
M669.372925,539.991333 
	C669.181641,539.411987 669.319214,538.752441 669.825806,538.037964 
	C670.030457,538.625671 669.866089,539.268494 669.372925,539.991333 
z"/>
<path fill="#AEDBE9" opacity="1.000000" stroke="none" 
	d="
M234.274078,494.338989 
	C234.479156,493.781006 234.980530,493.451263 235.778061,493.055908 
	C235.572937,493.515961 235.071655,494.041595 234.274078,494.338989 
z"/>
<path fill="#EDF7FA" opacity="1.000000" stroke="none" 
	d="
M770.942688,736.340942 
	C771.392456,736.503357 771.903259,736.983826 772.179565,737.768982 
	C771.631287,737.602051 771.317505,737.130493 770.942688,736.340942 
z"/>
<path fill="#EDF7FA" opacity="1.000000" stroke="none" 
	d="
M835.227051,594.444092 
	C835.012939,594.373840 834.883545,594.395203 834.754089,594.416565 
	C834.940002,594.456299 835.125854,594.495972 835.227051,594.444092 
z"/>
<path fill="#EDF7FA" opacity="1.000000" stroke="none" 
	d="
M722.952393,682.316895 
	C723.396851,682.483521 723.897827,682.972595 724.173218,683.768066 
	C723.634766,683.596069 723.321838,683.117676 722.952393,682.316895 
z"/>
<path fill="#9F9E9E" opacity="1.000000" stroke="none" 
	d="
M796.186523,590.495117 
	C796.092285,590.521118 795.916321,590.473572 795.740295,590.425964 
	C795.861755,590.424438 795.983276,590.422974 796.186523,590.495117 
z"/>
<path fill="#EDF7FA" opacity="1.000000" stroke="none" 
	d="
M722.269165,680.799622 
	C722.381348,681.017822 722.489990,681.465027 722.836426,681.965027 
	C722.804749,681.688049 722.535217,681.358337 722.269165,680.799622 
z"/>
<path fill="#EDF7FA" opacity="1.000000" stroke="none" 
	d="
M778.982666,746.311768 
	C779.349243,746.125488 779.781311,746.205139 780.092773,746.687073 
	C779.664185,746.918823 779.356201,746.748291 778.982666,746.311768 
z"/>
<path fill="#EDF7FA" opacity="1.000000" stroke="none" 
	d="
M759.020264,709.695068 
	C758.657654,709.869080 758.228943,709.775574 757.913452,709.296387 
	C758.335815,709.082947 758.645020,709.255249 759.020264,709.695068 
z"/>
<path fill="#9F9E9E" opacity="1.000000" stroke="none" 
	d="
M67.985626,426.969849 
	C68.026611,426.505554 68.263649,426.224487 68.779739,425.996765 
	C69.058800,426.050079 68.974754,426.038300 68.949776,426.004639 
	C69.017746,426.206207 69.140236,426.435364 69.190460,426.679382 
	C69.213600,426.791779 69.095291,426.933350 68.816788,427.280151 
	C68.455544,427.383423 68.318611,427.268250 67.985626,426.969849 
z"/>
<path fill="#AEDBE9" opacity="1.000000" stroke="none" 
	d="
M238.363495,491.008636 
	C238.244888,490.579559 238.444031,490.082794 239.081268,489.766693 
	C239.239990,490.278564 238.960617,490.609741 238.363495,491.008636 
z"/>
<path fill="#AEDBE9" opacity="1.000000" stroke="none" 
	d="
M234.359589,494.662476 
	C233.842072,494.725128 233.753540,494.496674 234.018753,494.099304 
	C234.234283,494.106171 234.372986,494.253204 234.359589,494.662476 
z"/>
<path fill="#AEDBE9" opacity="1.000000" stroke="none" 
	d="
M644.016724,490.134094 
	C644.051758,490.198822 644.227966,490.372528 644.577515,490.627380 
	C644.381958,490.751923 644.184204,490.596741 644.016724,490.134094 
z"/>
<path fill="#AEDBE9" opacity="1.000000" stroke="none" 
	d="
M237.320984,492.038208 
	C237.144836,491.622620 237.243591,491.169678 237.705185,490.889526 
	C237.910645,491.375183 237.753265,491.688019 237.320984,492.038208 
z"/>
<path fill="#EDF7FA" opacity="1.000000" stroke="none" 
	d="
M796.942017,766.055481 
	C796.633240,765.909180 796.341736,765.746216 796.004517,765.311401 
	C795.958862,765.039673 796.000000,765.000000 796.301025,764.980408 
	C796.732849,765.309265 796.863525,765.657654 796.994202,766.006104 
	C796.994202,766.006104 796.959290,766.038818 796.942017,766.055481 
z"/>
<path fill="#EDF7FA" opacity="1.000000" stroke="none" 
	d="
M795.938171,765.059326 
	C795.628540,764.914429 795.339539,764.749878 795.005005,764.312256 
	C794.959473,764.039185 795.009338,763.990845 795.321777,763.948486 
	C795.756165,764.270691 795.878113,764.635376 796.000000,765.000000 
	C796.000000,765.000000 795.958862,765.039673 795.938171,765.059326 
z"/>
<path fill="#EDF7FA" opacity="1.000000" stroke="none" 
	d="
M789.978149,758.304138 
	C790.370422,758.129089 790.827698,758.219727 791.123169,758.698547 
	C790.655334,758.914429 790.349243,758.742126 789.978149,758.304138 
z"/>
<path fill="#EDF7FA" opacity="1.000000" stroke="none" 
	d="
M779.976807,747.298340 
	C780.330994,747.135681 780.751221,747.243103 781.074890,747.719666 
	C780.666443,747.915283 780.354675,747.741821 779.976807,747.298340 
z"/>
<path fill="#EDF7FA" opacity="1.000000" stroke="none" 
	d="
M782.979919,751.308228 
	C783.391113,751.124329 783.866760,751.204285 784.149048,751.684387 
	C783.651978,751.913696 783.348145,751.742859 782.979919,751.308228 
z"/>
<path fill="#EDF7FA" opacity="1.000000" stroke="none" 
	d="
M794.934326,764.063110 
	C794.623169,763.920410 794.337280,763.753662 793.981934,763.340942 
	C793.912476,763.094910 793.960876,763.041382 794.307495,762.961243 
	C794.772522,763.251038 794.890930,763.620911 795.009338,763.990845 
	C795.009338,763.990845 794.959473,764.039185 794.934326,764.063110 
z"/>
<path fill="#EDF7FA" opacity="1.000000" stroke="none" 
	d="
M783.981323,752.310425 
	C784.373535,752.124207 784.830627,752.202454 785.125305,752.683716 
	C784.657288,752.916138 784.351746,752.745544 783.981323,752.310425 
z"/>
<path fill="#EDF7FA" opacity="1.000000" stroke="none" 
	d="
M784.977844,753.302979 
	C785.384460,753.127625 785.855286,753.217407 786.141357,753.696106 
	C785.651794,753.912720 785.346924,753.740417 784.977844,753.302979 
z"/>
<path fill="#EDF7FA" opacity="1.000000" stroke="none" 
	d="
M787.980347,756.308594 
	C788.370544,756.126038 788.825684,756.208496 789.121582,756.689087 
	C788.656677,756.916016 788.350952,756.744751 787.980347,756.308594 
z"/>
<path fill="#AEDBE9" opacity="1.000000" stroke="none" 
	d="
M236.289215,493.028503 
	C236.140640,492.660461 236.270096,492.251740 236.737610,491.944153 
	C236.906219,492.359467 236.736725,492.673615 236.289215,493.028503 
z"/>
<path fill="#EDF7FA" opacity="1.000000" stroke="none" 
	d="
M788.978149,757.304138 
	C789.370422,757.129089 789.827698,757.219788 790.123169,757.698608 
	C789.655273,757.914429 789.349243,757.742126 788.978149,757.304138 
z"/>
<path fill="#EDF7FA" opacity="1.000000" stroke="none" 
	d="
M744.023071,690.715027 
	C743.694214,690.861328 743.300171,690.732849 742.956848,690.259766 
	C743.324341,690.090149 743.641113,690.265198 744.023071,690.715027 
z"/>
<path fill="#EDF7FA" opacity="1.000000" stroke="none" 
	d="
M660.973450,615.291870 
	C661.368958,615.129822 661.829224,615.236877 662.127075,615.715820 
	C661.655884,615.912048 661.347046,615.736572 660.973450,615.291870 
z"/>
<path fill="#EDF7FA" opacity="1.000000" stroke="none" 
	d="
M665.976562,620.297852 
	C666.345215,620.133484 666.779114,620.237976 667.091919,620.715576 
	C666.661072,620.914673 666.351440,620.740723 665.976562,620.297852 
z"/>
<path fill="#9F9E9E" opacity="1.000000" stroke="none" 
	d="
M420.940063,621.099976 
	C421.417969,620.944397 421.892731,621.124023 422.185303,621.667847 
	C421.647705,621.833069 421.292297,621.634155 420.940063,621.099976 
z"/>
<path fill="#EDF7FA" opacity="1.000000" stroke="none" 
	d="
M666.977722,621.299927 
	C667.326477,621.135498 667.741150,621.240967 668.067261,621.718262 
	C667.666992,621.916687 667.355347,621.743164 666.977722,621.299927 
z"/>
<path fill="#EDF7FA" opacity="1.000000" stroke="none" 
	d="
M667.976807,622.295532 
	C668.302795,622.140442 668.695374,622.258362 669.040161,622.732056 
	C668.676025,622.914673 668.359741,622.741577 667.976807,622.295532 
z"/>
<path fill="#EDF7FA" opacity="1.000000" stroke="none" 
	d="
M726.994019,668.704590 
	C726.745544,668.892212 726.404114,668.800598 725.952881,668.430054 
	C726.195801,668.242554 726.548401,668.334045 726.994019,668.704590 
z"/>
<path fill="#EDF7FA" opacity="1.000000" stroke="none" 
	d="
M728.021545,669.699707 
	C727.692993,669.861755 727.297607,669.752258 726.955933,669.277588 
	C727.324707,669.084351 727.639648,669.256226 728.021545,669.699707 
z"/>
<path fill="#EDF7FA" opacity="1.000000" stroke="none" 
	d="
M735.024780,678.716919 
	C734.646667,678.868530 734.206238,678.748657 733.899109,678.270813 
	C734.342407,678.090393 734.652405,678.267944 735.024780,678.716919 
z"/>
<path fill="#EDF7FA" opacity="1.000000" stroke="none" 
	d="
M736.013794,679.724792 
	C735.695557,679.859802 735.301575,679.727051 734.958496,679.252686 
	C735.318909,679.093018 735.628479,679.274963 736.013794,679.724792 
z"/>
<path fill="#EDF7FA" opacity="1.000000" stroke="none" 
	d="
M737.021362,680.699341 
	C736.687317,680.863281 736.286499,680.755859 735.947876,680.280518 
	C736.324890,680.084290 736.639709,680.256104 737.021362,680.699341 
z"/>
<path fill="#EDF7FA" opacity="1.000000" stroke="none" 
	d="
M723.976990,684.297302 
	C724.344788,684.132996 724.778137,684.237671 725.091675,684.715332 
	C724.662109,684.914307 724.352295,684.740295 723.976990,684.297302 
z"/>
<path fill="#EDF7FA" opacity="1.000000" stroke="none" 
	d="
M724.979736,685.300415 
	C725.307068,685.137512 725.701843,685.245605 726.043762,685.720825 
	C725.676270,685.915833 725.361755,685.743652 724.979736,685.300415 
z"/>
<path fill="#EDF7FA" opacity="1.000000" stroke="none" 
	d="
M741.016602,685.686401 
	C740.639709,685.877869 740.197693,685.804321 739.893188,685.321167 
	C740.337585,685.081543 740.644531,685.251465 741.016602,685.686401 
z"/>
<path fill="#EDF7FA" opacity="1.000000" stroke="none" 
	d="
M771.975037,738.296143 
	C772.387695,738.130737 772.864197,738.231873 773.148071,738.708130 
	C772.649963,738.909790 772.344421,738.736206 771.975037,738.296143 
z"/>
<path fill="#EDF7FA" opacity="1.000000" stroke="none" 
	d="
M729.990234,691.280396 
	C730.287476,691.144897 730.665039,691.274170 731.019043,691.746826 
	C730.687073,691.908569 730.378845,691.726929 729.990234,691.280396 
z"/>
<path fill="#EDF7FA" opacity="1.000000" stroke="none" 
	d="
M730.974487,692.282288 
	C731.341980,692.135254 731.771851,692.260742 732.086121,692.737366 
	C731.659302,692.910645 731.348022,692.732666 730.974487,692.282288 
z"/>
<path fill="#EDF7FA" opacity="1.000000" stroke="none" 
	d="
M731.977783,693.295532 
	C732.338196,693.135376 732.765808,693.243408 733.083008,693.720398 
	C732.663452,693.914124 732.354309,693.738953 731.977783,693.295532 
z"/>
<path fill="#EDF7FA" opacity="1.000000" stroke="none" 
	d="
M732.977844,694.295532 
	C733.338440,694.135254 733.766235,694.243286 734.083313,694.720337 
	C733.663391,694.914185 733.354248,694.739014 732.977844,694.295532 
z"/>
<path fill="#EDF7FA" opacity="1.000000" stroke="none" 
	d="
M733.977783,695.298462 
	C734.318970,695.137634 734.726929,695.246704 735.057739,695.723267 
	C734.668640,695.916626 734.356628,695.742554 733.977783,695.298462 
z"/>
<path fill="#EDF7FA" opacity="1.000000" stroke="none" 
	d="
M750.941589,699.181030 
	C750.520508,699.232971 750.120789,698.929321 749.879211,698.270508 
	C750.345886,698.218750 750.654419,698.522156 750.941589,699.181030 
z"/>
<path fill="#EDF7FA" opacity="1.000000" stroke="none" 
	d="
M739.263733,700.435547 
	C739.240295,700.354309 739.389893,700.657715 739.472412,700.687805 
	C739.554932,700.717896 739.287170,700.516785 739.263733,700.435547 
z"/>
<path fill="#EDF7FA" opacity="1.000000" stroke="none" 
	d="
M751.995972,700.693726 
	C751.738586,700.760132 751.383850,700.516052 750.974365,699.897827 
	C751.246033,699.810120 751.572327,700.096680 751.995972,700.693726 
z"/>
<path fill="#AEDBE9" opacity="1.000000" stroke="none" 
	d="
M667.333008,543.032593 
	C667.144592,542.623047 667.229004,542.176208 667.691650,541.894775 
	C667.915161,542.371887 667.760498,542.683594 667.333008,543.032593 
z"/>
<path fill="#EDF7FA" opacity="1.000000" stroke="none" 
	d="
M760.017151,710.687317 
	C759.620117,710.880066 759.158386,710.809021 758.866943,710.325806 
	C759.342346,710.083557 759.647400,710.253479 760.017151,710.687317 
z"/>
<path fill="#EDF7FA" opacity="1.000000" stroke="none" 
	d="
M767.016602,719.686829 
	C766.632812,719.878601 766.183899,719.806091 765.884277,719.322876 
	C766.339539,719.082214 766.645447,719.252380 767.016602,719.686829 
z"/>
<path fill="#EDF7FA" opacity="1.000000" stroke="none" 
	d="
M775.022339,730.699951 
	C774.659119,730.866638 774.230103,730.764771 773.914246,730.286804 
	C774.337097,730.084290 774.646790,730.257874 775.022339,730.699951 
z"/>
<path fill="#EDF7FA" opacity="1.000000" stroke="none" 
	d="
M776.019531,731.693359 
	C775.644226,731.872131 775.203186,731.784668 774.896667,731.304504 
	C775.338745,731.083557 775.646301,731.255310 776.019531,731.693359 
z"/>
<path fill="#5DBAD1" opacity="1.000000" stroke="none" 
	d="
M795.321777,763.948486 
	C794.890930,763.620911 794.772522,763.251038 794.333130,762.935791 
	C793.750488,762.000488 793.488892,761.010437 793.112000,759.717468 
	C793.078491,758.808899 793.160217,758.203247 793.275391,757.140747 
	C795.306152,758.538513 797.303467,760.393066 799.643127,762.130493 
	C802.366272,765.787415 804.723572,769.576660 807.140198,773.327698 
	C808.025635,774.702087 809.051697,775.985901 810.018677,777.663757 
	C808.590027,777.283142 807.156250,776.549866 805.367188,775.903076 
	C804.246704,774.646484 803.481445,773.303467 802.356201,771.981934 
	C800.559143,769.993408 799.122131,767.983398 797.339600,765.989746 
	C796.863525,765.657654 796.732849,765.309265 796.301025,764.980408 
	C795.878113,764.635376 795.756165,764.270691 795.321777,763.948486 
z"/>
<path fill="#AEDBE9" opacity="1.000000" stroke="none" 
	d="
M818.010193,788.626343 
	C816.072937,786.960205 814.162964,784.944336 812.243774,782.284729 
	C812.328308,781.406433 812.422058,781.171875 812.515747,780.937378 
	C814.356323,783.383789 816.196838,785.830139 818.010193,788.626343 
z"/>
<path fill="#5DBAD1" opacity="1.000000" stroke="none" 
	d="
M812.403809,780.615112 
	C812.422058,781.171875 812.328308,781.406433 812.105835,781.998657 
	C811.545715,782.149963 811.114441,781.943665 810.345703,781.864441 
	C809.900208,780.913452 809.792175,779.835449 809.835022,778.364624 
	C810.754578,778.745483 811.523254,779.519165 812.403809,780.615112 
z"/>
<path fill="#000000" opacity="1.000000" stroke="none" 
	d="
M859.029114,460.814026 
	C859.012329,460.524078 859.534973,460.241150 860.286804,460.131439 
	C860.200134,460.476746 859.884338,460.648895 859.029114,460.814026 
z"/>
</svg>